<svg width="20" height="20" viewBox="0 0 20 20" fill="none" xmlns="http://www.w3.org/2000/svg">
<path d="M11.6673 4.16699H15.0006C15.9215 4.16699 16.6673 4.91283 16.6673 5.83366V16.667C16.6673 17.5878 15.9215 18.3337 15.0006 18.3337H5.00065C4.07982 18.3337 3.33398 17.5878 3.33398 16.667V5.83366C3.33398 4.91283 4.07982 4.16699 5.00065 4.16699H8.33398" stroke="white" stroke-width="1.5" stroke-linecap="round" stroke-linejoin="round"/>
<path d="M11.3258 8.88218C12.0581 9.61442 12.0581 10.8016 11.3258 11.5338C10.5936 12.2661 9.40641 12.2661 8.67417 11.5338C7.94194 10.8016 7.94194 9.61442 8.67417 8.88218C9.40641 8.14995 10.5936 8.14995 11.3258 8.88218" stroke="white" stroke-width="1.5" stroke-linecap="round" stroke-linejoin="round"/>
<path d="M12.9956 15.8337C12.8497 15.4678 12.6247 15.1395 12.3356 14.872V14.872C11.8464 14.4187 11.2047 14.167 10.5381 14.167H9.46141C8.79474 14.167 8.15307 14.4187 7.66391 14.872V14.872C7.37474 15.1395 7.14974 15.4678 7.00391 15.8337" stroke="white" stroke-width="1.5" stroke-linecap="round" stroke-linejoin="round"/>
<path fill-rule="evenodd" clip-rule="evenodd" d="M10.834 5.83366H9.16732C8.70732 5.83366 8.33398 5.46032 8.33398 5.00032V2.50033C8.33398 2.04033 8.70732 1.66699 9.16732 1.66699H10.834C11.294 1.66699 11.6673 2.04033 11.6673 2.50033V5.00032C11.6673 5.46032 11.294 5.83366 10.834 5.83366Z" stroke="white" stroke-width="1.5" stroke-linecap="round" stroke-linejoin="round"/>
</svg>
