<svg width="20" height="20" viewBox="0 0 20 20" fill="none" xmlns="http://www.w3.org/2000/svg">
<path fill-rule="evenodd" clip-rule="evenodd" d="M10.4618 10.8337V7.91699C10.4618 7.22699 9.90182 6.66699 9.21182 6.66699V6.66699C8.52182 6.66699 7.96182 7.22699 7.96182 7.91699V9.16699V13.3337L7.21099 12.5828C6.70516 12.077 5.88516 12.077 5.37932 12.5828V12.5828C4.94266 13.0195 4.87516 13.7037 5.21766 14.217L7.46682 17.5912C7.77599 18.0553 8.29682 18.3337 8.85432 18.3337H13.261C14.1018 18.3337 14.8102 17.7078 14.9152 16.8737L15.3668 13.2595C15.4777 12.3703 14.866 11.552 13.9818 11.4078L10.4618 10.8337Z" stroke="white" stroke-width="1.5" stroke-linecap="round" stroke-linejoin="round"/>
<path d="M15.1485 14.9997H16.666C17.5868 14.9997 18.3327 14.2539 18.3327 13.3331V3.35807C18.3327 2.43724 17.5868 1.69141 16.666 1.69141H3.33268C2.41185 1.69141 1.66602 2.43724 1.66602 3.35807V13.3331C1.66602 14.2539 2.41185 14.9997 3.33268 14.9997H5.73935" stroke="white" stroke-width="1.5" stroke-linecap="round" stroke-linejoin="round"/>
<path d="M3.98112 3.76602C3.97862 3.76602 3.97695 3.76768 3.97695 3.77018C3.97695 3.77268 3.97862 3.77435 3.98112 3.77435C3.98362 3.77435 3.98529 3.77268 3.98529 3.77018C3.98529 3.76768 3.98362 3.76602 3.98112 3.76602" stroke="white" stroke-width="1.5" stroke-linecap="round" stroke-linejoin="round"/>
<path d="M6.10026 3.76602C6.09776 3.76602 6.09609 3.76768 6.09609 3.77018C6.09609 3.77268 6.09776 3.77435 6.10026 3.77435C6.10276 3.77435 6.10443 3.77268 6.10443 3.77018C6.10443 3.76768 6.10276 3.76602 6.10026 3.76602" stroke="white" stroke-width="1.5" stroke-linecap="round" stroke-linejoin="round"/>
<path d="M8.21745 3.76602C8.21495 3.76602 8.21328 3.76768 8.21328 3.77018C8.21328 3.77268 8.21495 3.77435 8.21745 3.77435C8.21995 3.77435 8.22161 3.77268 8.22161 3.77018C8.22161 3.76768 8.21995 3.76602 8.21745 3.76602" stroke="white" stroke-width="1.5" stroke-linecap="round" stroke-linejoin="round"/>
</svg>
