<svg width="20" height="20" viewBox="0 0 20 20" fill="none" xmlns="http://www.w3.org/2000/svg">
<path d="M4.50232 15.6355C3.28315 14.5663 2.41065 13.1122 2.08398 11.458" stroke="white" stroke-width="1.5" stroke-linecap="round" stroke-linejoin="round"/>
<path d="M11.8532 17.0954C11.0957 17.3538 10.2857 17.4996 9.44068 17.4996C8.59568 17.4996 7.78568 17.3538 7.02734 17.0954" stroke="white" stroke-width="1.5" stroke-linecap="round" stroke-linejoin="round"/>
<path d="M11.8532 2.90391C11.0957 2.64557 10.2857 2.49974 9.44068 2.49974C8.59568 2.49974 7.78568 2.64557 7.02734 2.90391" stroke="white" stroke-width="1.5" stroke-linecap="round" stroke-linejoin="round"/>
<path d="M14.377 15.6355C15.5961 14.5663 16.4686 13.1122 16.7953 11.458" stroke="white" stroke-width="1.5" stroke-linecap="round" stroke-linejoin="round"/>
<path d="M2.08398 8.54176C2.40982 6.88759 3.28232 5.43426 4.50232 4.36426" stroke="white" stroke-width="1.5" stroke-linecap="round" stroke-linejoin="round"/>
<path fill-rule="evenodd" clip-rule="evenodd" d="M13.3715 8.54112H17.0957C17.7273 8.54112 18.1232 7.85695 17.8065 7.30945L15.944 4.08445C15.6282 3.53695 14.8382 3.53695 14.5215 4.08445L12.659 7.30945C12.3449 7.85695 12.7399 8.54112 13.3715 8.54112V8.54112Z" stroke="white" stroke-width="1.5" stroke-linecap="round" stroke-linejoin="round"/>
</svg>
