<svg width="20" height="20" viewBox="0 0 20 20" fill="none" xmlns="http://www.w3.org/2000/svg">
<path fill-rule="evenodd" clip-rule="evenodd" d="M11.9168 6.3115C12.6874 6.69701 13.3118 7.32258 13.6958 8.09391C14.6849 10.0054 14.0545 12.3557 12.2415 13.5155C10.4285 14.6753 8.03043 14.2625 6.7096 12.5633C5.72418 11.2766 5.56467 9.53849 6.29943 8.09391C6.68436 7.32206 7.30999 6.69643 8.08183 6.3115C8.21177 6.24746 8.36563 6.25547 8.48821 6.33266C8.6108 6.40985 8.68451 6.54514 8.68292 6.68999V9.9997H11.319V6.68999C11.318 6.54609 11.3913 6.41184 11.5129 6.33485C11.6344 6.25787 11.7871 6.24904 11.9168 6.3115Z" stroke="white" stroke-width="1.5" stroke-linecap="round" stroke-linejoin="round"/>
<circle cx="9.99922" cy="10.0002" r="7.50312" stroke="white" stroke-width="1.5" stroke-linecap="round" stroke-linejoin="round"/>
<path d="M7.91489 13.6055V17.2086" stroke="white" stroke-width="1.5" stroke-linecap="round" stroke-linejoin="round"/>
<path d="M12.0829 13.6064V17.2088" stroke="white" stroke-width="1.5" stroke-linecap="round" stroke-linejoin="round"/>
</svg>
