<svg width="20" height="20" viewBox="0 0 20 20" fill="none" xmlns="http://www.w3.org/2000/svg">
<path fill-rule="evenodd" clip-rule="evenodd" d="M15.4173 12.5007H10.0007C8.61994 12.5007 7.50065 11.3814 7.50065 10.0007V10.0007C7.50065 8.61994 8.61994 7.50065 10.0007 7.50065H15.4173C16.1077 7.50065 16.6673 6.94101 16.6673 6.25065V4.58398C16.6673 3.89363 16.1077 3.33398 15.4173 3.33398H10.0007C6.31875 3.33398 3.33398 6.31875 3.33398 10.0007V10.0007C3.33398 13.6825 6.31875 16.6673 10.0007 16.6673H15.4173C16.1077 16.6673 16.6673 16.1077 16.6673 15.4173V13.7507C16.6673 13.0603 16.1077 12.5007 15.4173 12.5007Z" stroke="white" stroke-width="1.5" stroke-linecap="round" stroke-linejoin="round"/>
<path d="M12.5007 3.33203V7.4987" stroke="white" stroke-width="1.5" stroke-linecap="round" stroke-linejoin="round"/>
<path d="M12.5007 12.498V16.6647" stroke="white" stroke-width="1.5" stroke-linecap="round" stroke-linejoin="round"/>
</svg>
