<svg width="20" height="20" viewBox="0 0 20 20" fill="none" xmlns="http://www.w3.org/2000/svg">
<path fill-rule="evenodd" clip-rule="evenodd" d="M17.4392 13.3319V6.66693C17.4392 6.07109 17.1217 5.52109 16.6058 5.22359L10.8342 1.89109C10.3183 1.59359 9.68333 1.59359 9.1675 1.89109L3.39583 5.22359C2.88 5.52109 2.5625 6.07193 2.5625 6.66693V13.3311C2.5625 13.9269 2.88 14.4769 3.39583 14.7744L9.1675 18.1078C9.68333 18.4053 10.3183 18.4053 10.8342 18.1078L16.6058 14.7753C17.1217 14.4778 17.4392 13.9269 17.4392 13.3319Z" stroke="white" stroke-width="1.5" stroke-linecap="round" stroke-linejoin="round"/>
<path d="M5.14062 10.5254L7.64062 11.9754" stroke="white" stroke-width="1.5" stroke-linecap="round" stroke-linejoin="round"/>
<path d="M2.78516 5.83398L10.0002 9.99982L17.2152 5.83398" stroke="white" stroke-width="1.5" stroke-linecap="round" stroke-linejoin="round"/>
<path d="M9.9987 18.3333V10" stroke="white" stroke-width="1.5" stroke-linecap="round" stroke-linejoin="round"/>
<path d="M6.39062 7.91667L13.8323 3.625" stroke="white" stroke-width="1.5" stroke-linecap="round" stroke-linejoin="round"/>
</svg>
