<svg width="20" height="20" viewBox="0 0 20 20" fill="none" xmlns="http://www.w3.org/2000/svg">
<path d="M2.49689 6.66586H17.5031" stroke="white" stroke-width="1.5" stroke-linecap="round" stroke-linejoin="round"/>
<path d="M7.91581 9.99985H5.8316" stroke="white" stroke-width="1.5" stroke-linecap="round" stroke-linejoin="round"/>
<path d="M9.16633 15.0026H4.99793C3.61664 15.0026 2.49689 13.8828 2.49689 12.5015V5.8321C2.49689 4.45081 3.61664 3.33105 4.99793 3.33105H15.0021C16.3834 3.33105 17.5031 4.45081 17.5031 5.8321V10.0005" stroke="white" stroke-width="1.5" stroke-linecap="round" stroke-linejoin="round"/>
<path fill-rule="evenodd" clip-rule="evenodd" d="M11.9114 14.8673L14.8643 11.9121C15.021 11.7552 15.2337 11.6671 15.4555 11.667C15.6773 11.6669 15.89 11.755 16.0469 11.9117L17.2583 13.1225C17.4151 13.2792 17.5032 13.4917 17.5032 13.7134C17.5032 13.935 17.4151 14.1475 17.2583 14.3042L14.3019 17.2588C14.1456 17.4151 13.9336 17.5029 13.7125 17.5029H11.6674V15.4566C11.6674 15.2356 11.7552 15.0236 11.9114 14.8673Z" stroke="white" stroke-width="1.5" stroke-linecap="round" stroke-linejoin="round"/>
</svg>
