<svg width="21" height="20" viewBox="0 0 21 20" fill="none" xmlns="http://www.w3.org/2000/svg">
<path fill-rule="evenodd" clip-rule="evenodd" d="M9.61742 17.4126V17.4126C5.76967 16.6431 2.99999 13.2646 3 9.34066V6.66667C3 4.36548 4.86548 2.5 7.16667 2.5H13.8333C16.1345 2.5 18 4.36548 18 6.66667V9.34063C18 13.2645 15.2304 16.6429 11.3828 17.4126H11.3826C10.8 17.5291 10.2 17.5291 9.61742 17.4126V17.4126Z" stroke="white" stroke-width="1.5" stroke-linecap="round" stroke-linejoin="round"/>
<path fill-rule="evenodd" clip-rule="evenodd" d="M14.25 7.63869V8.29167C14.25 8.7519 13.8769 9.125 13.4167 9.125H7.58333C7.1231 9.125 6.75 8.7519 6.75 8.29167V7.63869C6.75 7.38377 6.81497 7.13306 6.93877 6.91022L7.1071 6.60726C7.40105 6.07816 7.95874 5.75001 8.56401 5.75H12.436C13.0413 5.75 13.599 6.07815 13.8929 6.60726L14.0613 6.91022C14.185 7.13307 14.25 7.38378 14.25 7.63869Z" stroke="white" stroke-width="1.5" stroke-linecap="round" stroke-linejoin="round"/>
<path d="M7.50016 12.5V9.125" stroke="white" stroke-width="1.5" stroke-linecap="round" stroke-linejoin="round"/>
<path d="M6.75 12.4997H14.25" stroke="white" stroke-width="1.5" stroke-linecap="round" stroke-linejoin="round"/>
<path d="M13.5002 12.5V9.125" stroke="white" stroke-width="1.5" stroke-linecap="round" stroke-linejoin="round"/>
</svg>
