<svg width="20" height="20" viewBox="0 0 20 20" fill="none" xmlns="http://www.w3.org/2000/svg">
<path fill-rule="evenodd" clip-rule="evenodd" d="M17.4382 13.3329V6.6679C17.4382 6.07207 17.1207 5.52207 16.6049 5.22457L10.8332 1.89207C10.3174 1.59457 9.68236 1.59457 9.16652 1.89207L3.39486 5.22457C2.87902 5.52207 2.56152 6.0729 2.56152 6.6679V13.3321C2.56152 13.9279 2.87902 14.4779 3.39486 14.7754L9.16652 18.1087C9.68236 18.4062 10.3174 18.4062 10.8332 18.1087L16.6049 14.7762C17.1207 14.4787 17.4382 13.9279 17.4382 13.3329Z" stroke="white" stroke-width="1.5" stroke-linecap="round" stroke-linejoin="round"/>
<path d="M5.1416 10.5254L7.6416 11.9754" stroke="white" stroke-width="1.5" stroke-linecap="round" stroke-linejoin="round"/>
<path d="M2.78516 5.83398L10.0002 9.99982L17.2152 5.83398" stroke="white" stroke-width="1.5" stroke-linecap="round" stroke-linejoin="round"/>
<path d="M9.99967 18.3333V10" stroke="white" stroke-width="1.5" stroke-linecap="round" stroke-linejoin="round"/>
<path d="M6.3916 7.91667L13.8333 3.625" stroke="white" stroke-width="1.5" stroke-linecap="round" stroke-linejoin="round"/>
</svg>
