<svg width="20" height="20" viewBox="0 0 20 20" fill="none" xmlns="http://www.w3.org/2000/svg">
<path d="M18.3337 18.3337H1.66699" stroke="white" stroke-width="1.5" stroke-linecap="round" stroke-linejoin="round"/>
<path d="M4.58301 5.83333V3.33333C4.58301 2.8731 4.9561 2.5 5.41634 2.5H6.24967C6.70991 2.5 7.08301 2.8731 7.08301 3.33333V5.83333" stroke="white" stroke-width="1.5" stroke-linecap="round" stroke-linejoin="round"/>
<path d="M9.58301 5.83301V4.16634C9.58301 3.7061 9.9561 3.33301 10.4163 3.33301H11.2497C11.7099 3.33301 12.083 3.7061 12.083 4.16634V5.83301" stroke="white" stroke-width="1.5" stroke-linecap="round" stroke-linejoin="round"/>
<path d="M10.833 9.16667H5.83301" stroke="white" stroke-width="1.5" stroke-linecap="round" stroke-linejoin="round"/>
<path d="M10.833 11.6667H5.83301" stroke="white" stroke-width="1.5" stroke-linecap="round" stroke-linejoin="round"/>
<path d="M14.167 11.667H16.667C17.1272 11.667 17.5003 12.0401 17.5003 12.5003V18.3337" stroke="white" stroke-width="1.5" stroke-linecap="round" stroke-linejoin="round"/>
<path d="M2.5 18.333V6.66634C2.5 6.2061 2.8731 5.83301 3.33333 5.83301H13.3333C13.7936 5.83301 14.1667 6.2061 14.1667 6.66634V18.333" stroke="white" stroke-width="1.5" stroke-linecap="round" stroke-linejoin="round"/>
<path fill-rule="evenodd" clip-rule="evenodd" d="M7.50033 14.167H9.16699C9.62723 14.167 10.0003 14.5401 10.0003 15.0003V18.3337H6.66699V15.0003C6.66699 14.5401 7.04009 14.167 7.50033 14.167Z" stroke="white" stroke-width="1.5" stroke-linecap="round" stroke-linejoin="round"/>
</svg>
