<svg width="20" height="20" viewBox="0 0 20 20" fill="none" xmlns="http://www.w3.org/2000/svg">
<path fill-rule="evenodd" clip-rule="evenodd" d="M14.1667 17.5H5.83333C3.9925 17.5 2.5 16.0075 2.5 14.1667V5.83333C2.5 3.9925 3.9925 2.5 5.83333 2.5H14.1667C16.0075 2.5 17.5 3.9925 17.5 5.83333V14.1667C17.5 16.0075 16.0075 17.5 14.1667 17.5Z" stroke="white" stroke-width="1.5" stroke-linecap="round" stroke-linejoin="round"/>
<path d="M11.2956 9.35254L9.67479 10.9734L8.70312 10.0009" stroke="white" stroke-width="1.5" stroke-linecap="round" stroke-linejoin="round"/>
<path fill-rule="evenodd" clip-rule="evenodd" d="M6.06346 10.6785L6.6168 11.4027L6.7368 12.3035C6.80346 12.8035 7.19596 13.1968 7.69596 13.2635L8.5993 13.3843L9.32263 13.9368C9.72263 14.2427 10.2785 14.2427 10.6785 13.9368L11.4026 13.3835H11.4018L12.3035 13.2635C12.8035 13.1968 13.1968 12.8043 13.2635 12.3043L13.3843 11.401C13.3843 11.4018 13.6643 11.0352 13.9376 10.6777C14.2435 10.2777 14.2435 9.72184 13.9376 9.32184L13.3843 8.59767L13.2643 7.69684C13.1976 7.19684 12.8051 6.8035 12.3051 6.73684L11.401 6.61684L10.6776 6.06434C10.2776 5.7585 9.7218 5.7585 9.3218 6.06434L8.59763 6.61684H8.59846L7.6968 6.736C7.1968 6.80267 6.80346 7.19517 6.7368 7.69517L6.61596 8.5985C6.61596 8.59767 6.33596 8.96434 6.06263 9.32184C5.75763 9.72267 5.75763 10.2777 6.06346 10.6785Z" stroke="white" stroke-width="1.5" stroke-linecap="round" stroke-linejoin="round"/>
</svg>
