<svg width="24" height="24" viewBox="0 0 24 24" fill="none" xmlns="http://www.w3.org/2000/svg">
<rect width="24" height="24" rx="12" fill="#15B08F"/>
<path fill-rule="evenodd" clip-rule="evenodd" d="M12.5313 12.2971L16.0167 8.81167C16.4323 8.39611 17.106 8.39611 17.5216 8.81167V8.81167C17.9372 9.22724 17.9372 9.90102 17.5216 10.3166L14.0362 13.802C13.8131 14.0251 13.5236 14.1699 13.2112 14.2145L12.4049 14.3297C12.2944 14.3455 12.1829 14.3083 12.1039 14.2293C12.0249 14.1504 11.9878 14.0389 12.0036 13.9283L12.1188 13.122C12.1634 12.8097 12.3081 12.5202 12.5313 12.2971V12.2971Z" stroke="white" stroke-width="1.5" stroke-linecap="round" stroke-linejoin="round"/>
<path d="M10.2499 14.3337H9.08325" stroke="white" stroke-width="1.5" stroke-linecap="round" stroke-linejoin="round"/>
<path d="M10.2499 12.2917H9.08325" stroke="white" stroke-width="1.5" stroke-linecap="round" stroke-linejoin="round"/>
<path d="M11.9999 10.2497H9.08325" stroke="white" stroke-width="1.5" stroke-linecap="round" stroke-linejoin="round"/>
<path d="M16.0833 8.75073V7.91667C16.0833 7.27233 15.561 6.75 14.9167 6.75H7.91667C7.27233 6.75 6.75 7.27233 6.75 7.91667V16.0833C6.75 16.7277 7.27233 17.25 7.91667 17.25H14.9167C15.561 17.25 16.0833 16.7277 16.0833 16.0833V11.7549" stroke="white" stroke-width="1.25" stroke-linecap="round" stroke-linejoin="round"/>
</svg>
