<svg width="25" height="24" viewBox="0 0 25 24" fill="none" xmlns="http://www.w3.org/2000/svg">
<rect x="0.666748" width="24" height="24" rx="12" fill="#15B08F"/>
<path d="M11.6944 9.50011L12.4087 9.14456C12.573 9.06272 12.7664 9.06307 12.9305 9.1455L13.6361 9.49996L14.357 9.14345C14.5212 9.06228 14.7139 9.0629 14.8775 9.14512L15.262 9.33829C15.459 9.43732 15.5833 9.639 15.5833 9.85953V14.1397C15.5833 14.3602 15.459 14.5619 15.2619 14.6609L14.8775 14.8541C14.7139 14.9363 14.5211 14.9369 14.357 14.8558L13.6361 14.4993H13.6389L12.9247 14.8548C12.7603 14.9367 12.567 14.9363 12.4029 14.8539L11.6973 14.4994L10.9763 14.8559C10.8122 14.9371 10.6194 14.9365 10.4558 14.8543L10.0714 14.6611C9.87434 14.5621 9.74999 14.3604 9.75 14.1399V9.85968C9.75 9.63915 9.87437 9.43748 10.0714 9.33846L10.4558 9.14529C10.6195 9.06307 10.8122 9.06245 10.9763 9.14362L11.6973 9.50013" stroke="white" stroke-width="1.25" stroke-linecap="round" stroke-linejoin="round"/>
<rect x="7.41675" y="6.75" width="10.5" height="10.5" rx="5" stroke="white" stroke-width="1.25" stroke-linecap="round" stroke-linejoin="round"/>
<path d="M11.5 11.1247H13.8333" stroke="white" stroke-width="1.25" stroke-linecap="round" stroke-linejoin="round"/>
<path d="M11.5 12.8747H13.8333" stroke="white" stroke-width="1.25" stroke-linecap="round" stroke-linejoin="round"/>
</svg>
