<svg width="25" height="24" viewBox="0 0 25 24" fill="none" xmlns="http://www.w3.org/2000/svg">
<rect x="0.75" width="24" height="24" rx="12" fill="#15B08F"/>
<path d="M17.4186 10.8321V7.91422C17.4186 7.26962 16.896 6.74707 16.2514 6.74707H8.66496C8.02035 6.74707 7.4978 7.26962 7.4978 7.91422V16.0843C7.4978 16.7289 8.02035 17.2514 8.66496 17.2514H11.5828" stroke="white" stroke-width="1.25" stroke-linecap="round" stroke-linejoin="round"/>
<path d="M11.1451 13.7508H11.5828" stroke="white" stroke-width="1.25" stroke-linecap="round" stroke-linejoin="round"/>
<path d="M11.1451 11.4158H13.9171" stroke="white" stroke-width="1.25" stroke-linecap="round" stroke-linejoin="round"/>
<path d="M11.1451 9.15507H15.0843" stroke="white" stroke-width="1.25" stroke-linecap="round" stroke-linejoin="round"/>
<path d="M9.32145 13.8237C9.36174 13.8237 9.3944 13.7911 9.3944 13.7508C9.3944 13.7105 9.36174 13.6778 9.32145 13.6778C9.28116 13.6778 9.2485 13.7105 9.2485 13.7508C9.2485 13.7911 9.28116 13.8237 9.32145 13.8237" stroke="white" stroke-width="1.25" stroke-linecap="round" stroke-linejoin="round"/>
<path d="M9.32145 11.4888C9.36174 11.4888 9.3944 11.4561 9.3944 11.4158C9.3944 11.3755 9.36174 11.3429 9.32145 11.3429C9.28116 11.3429 9.2485 11.3755 9.2485 11.4158C9.2485 11.4561 9.28116 11.4888 9.32145 11.4888" stroke="white" stroke-width="1.25" stroke-linecap="round" stroke-linejoin="round"/>
<path d="M9.32145 9.22802C9.36174 9.22802 9.3944 9.19536 9.3944 9.15507C9.3944 9.11478 9.36174 9.08212 9.32145 9.08212C9.28116 9.08212 9.2485 9.11478 9.2485 9.15507C9.2485 9.19536 9.28116 9.22802 9.32145 9.22802" stroke="white" stroke-width="1.25" stroke-linecap="round" stroke-linejoin="round"/>
<path d="M15.9596 12.583C17.4099 12.583 18.5857 13.7587 18.5857 15.2091C18.5857 16.6595 17.4099 17.8352 15.9596 17.8352C14.5092 17.8352 13.3335 16.6595 13.3335 15.2091C13.3335 13.7587 14.5092 12.583 15.9596 12.583" stroke="white" stroke-width="1.25" stroke-linecap="round" stroke-linejoin="round"/>
<path d="M16.8677 14.7559L15.7333 15.8903L15.0516 15.2093" stroke="white" stroke-width="1.25" stroke-linecap="round" stroke-linejoin="round"/>
</svg>
