<svg width="25" height="24" viewBox="0 0 25 24" fill="none" xmlns="http://www.w3.org/2000/svg">
<rect x="0.5" width="24" height="24" rx="12" fill="#15B08F"/>
<path d="M7.25708 12.5781L8.4167 12.5834" stroke="white" stroke-width="1.25" stroke-linecap="round" stroke-linejoin="round"/>
<path d="M8.41663 10.8337H9.58329" stroke="white" stroke-width="1.25" stroke-linecap="round" stroke-linejoin="round"/>
<path d="M13.1891 14.6247H9.58337" stroke="white" stroke-width="1.25" stroke-linecap="round" stroke-linejoin="round"/>
<path d="M15.147 11.6419H13.13C12.8173 11.6419 12.5504 11.4158 12.499 11.1074L12.1616 9.08301" stroke="white" stroke-width="1.25" stroke-linecap="round" stroke-linejoin="round"/>
<path d="M14.9343 14.6247H15.3606C15.7138 14.6247 16 14.3384 16 13.9852V12.7582C16 12.5886 15.9327 12.4259 15.8128 12.306L15.1475 11.6407L14.1632 9.67212C13.9826 9.31108 13.6136 9.08301 13.21 9.08301H9.58337" stroke="white" stroke-width="1.25" stroke-linecap="round" stroke-linejoin="round"/>
<path d="M7.25 9.08333C7.25 7.79467 8.29467 6.75 9.58333 6.75H15.4167C16.7053 6.75 17.75 7.79467 17.75 9.08333V14.9167C17.75 16.2053 16.7053 17.25 15.4167 17.25H9.58333C8.29467 17.25 7.25 16.2053 7.25 14.9167" stroke="white" stroke-width="1.25" stroke-linecap="round" stroke-linejoin="round"/>
<path d="M14.0614 13.7549C14.5432 13.7549 14.9338 14.1454 14.9338 14.6272C14.9338 15.109 14.5433 15.4996 14.0615 15.4996C13.5797 15.4996 13.1891 15.1091 13.1891 14.6273V14.6272C13.1891 14.1454 13.5796 13.7549 14.0614 13.7549V13.7549" stroke="white" stroke-width="1.25" stroke-linecap="round" stroke-linejoin="round"/>
</svg>
