<svg width="20" height="20" viewBox="0 0 20 20" fill="none" xmlns="http://www.w3.org/2000/svg">
<path d="M8.08997 15.2867V15.5908C8.08997 16.645 8.94497 17.5 9.99997 17.5V17.5C11.055 17.5 11.91 16.645 11.91 15.59V15.2858" stroke="white" stroke-width="1.5" stroke-linecap="round" stroke-linejoin="round"/>
<path d="M11.5275 4.7925V4.0275C11.5275 3.18417 10.8441 2.5 9.99997 2.5V2.5C9.15581 2.5 8.47247 3.18417 8.47247 4.0275V4.7925" stroke="white" stroke-width="1.5" stroke-linecap="round" stroke-linejoin="round"/>
<path fill-rule="evenodd" clip-rule="evenodd" d="M5.46915 8.49001V8.49001C5.46915 6.40417 7.15998 4.71417 9.24498 4.71417H10.7558C12.8416 4.71417 14.5316 6.40501 14.5316 8.49001V8.49001V10.8208C14.5316 11.2625 14.7075 11.6867 15.02 11.9992L15.5541 12.5333C15.8666 12.8458 16.0425 13.27 16.0425 13.7117V13.7117C16.0425 14.5817 15.3375 15.2867 14.4675 15.2867H5.53331C4.66331 15.2867 3.95831 14.5817 3.95831 13.7117V13.7117C3.95831 13.27 4.13415 12.8458 4.44665 12.5333L4.98081 11.9992C5.29331 11.6867 5.46915 11.2625 5.46915 10.8208V8.49001Z" stroke="white" stroke-width="1.5" stroke-linecap="round" stroke-linejoin="round"/>
</svg>
