<svg width="24" height="24" viewBox="0 0 24 24" fill="none" xmlns="http://www.w3.org/2000/svg">
<rect width="24" height="24" rx="12" fill="#15B08F"/>
<path fill-rule="evenodd" clip-rule="evenodd" d="M14.041 11.2708H13.3118C12.9897 11.2708 12.7285 11.0097 12.7285 10.6875V9.95833C12.7285 9.63617 12.9897 9.375 13.3118 9.375H14.041C14.3632 9.375 14.6243 9.63617 14.6243 9.95833V10.6875C14.6243 11.0097 14.3632 11.2708 14.041 11.2708Z" stroke="white" stroke-width="1.25" stroke-linecap="round" stroke-linejoin="round"/>
<path fill-rule="evenodd" clip-rule="evenodd" d="M10.6875 14.6243H9.95833C9.63617 14.6243 9.375 14.3632 9.375 14.041V13.3118C9.375 12.9897 9.63617 12.7285 9.95833 12.7285H10.6875C11.0097 12.7285 11.2708 12.9897 11.2708 13.3118V14.041C11.2708 14.3632 11.0097 14.6243 10.6875 14.6243Z" stroke="white" stroke-width="1.25" stroke-linecap="round" stroke-linejoin="round"/>
<path fill-rule="evenodd" clip-rule="evenodd" d="M12 17.25C14.8995 17.25 17.25 14.8995 17.25 12C17.25 9.1005 14.8995 6.75 12 6.75C9.1005 6.75 6.75 9.1005 6.75 12C6.75 14.8995 9.1005 17.25 12 17.25V17.25Z" stroke="white" stroke-width="1.25" stroke-linecap="round" stroke-linejoin="round"/>
<path fill-rule="evenodd" clip-rule="evenodd" d="M11.2708 9.95833V10.6875C11.2708 11.0097 11.0097 11.2708 10.6875 11.2708H9.95833C9.63617 11.2708 9.375 11.0097 9.375 10.6875V9.95833C9.375 9.63617 9.63617 9.375 9.95833 9.375H10.6875C11.0097 9.375 11.2708 9.63617 11.2708 9.95833Z" stroke="white" stroke-width="1.25" stroke-linecap="round" stroke-linejoin="round"/>
<path fill-rule="evenodd" clip-rule="evenodd" d="M14.6243 13.3118V14.041C14.6243 14.3632 14.3632 14.6243 14.041 14.6243H13.3118C12.9897 14.6243 12.7285 14.3632 12.7285 14.041V13.3118C12.7285 12.9897 12.9897 12.7285 13.3118 12.7285H14.041C14.3632 12.7285 14.6243 12.9897 14.6243 13.3118Z" stroke="white" stroke-width="1.25" stroke-linecap="round" stroke-linejoin="round"/>
</svg>
