<svg width="24" height="24" viewBox="0 0 24 24" fill="none" xmlns="http://www.w3.org/2000/svg">
<rect width="24" height="24" rx="12" fill="#15B08F"/>
<path fill-rule="evenodd" clip-rule="evenodd" d="M17.0312 8.00358C17.0312 7.43192 16.5681 6.96875 15.9964 6.96875H8.00358C7.43192 6.96875 6.96875 7.43192 6.96875 8.00358V15.9964C6.96875 16.5681 7.43192 17.0312 8.00358 17.0312H15.9964C16.5681 17.0312 17.0312 16.5681 17.0312 15.9964V8.00358V8.00358Z" stroke="white" stroke-width="1.25" stroke-linecap="round" stroke-linejoin="round"/>
<path d="M14.8515 12.0007H11.7832" stroke="white" stroke-width="1.25" stroke-linecap="round" stroke-linejoin="round"/>
<path d="M9.47877 11.8975C9.53572 11.9545 9.53572 12.0468 9.47877 12.1038C9.42182 12.1607 9.32948 12.1607 9.27253 12.1038C9.21558 12.0468 9.21558 11.9545 9.27253 11.8975C9.32948 11.8406 9.42182 11.8406 9.47877 11.8975" stroke="white" stroke-width="1.25" stroke-linecap="round" stroke-linejoin="round"/>
<path d="M14.8515 9.37565H11.7832" stroke="white" stroke-width="1.25" stroke-linecap="round" stroke-linejoin="round"/>
<path d="M9.47877 9.27448C9.53572 9.33144 9.53572 9.42377 9.47877 9.48072C9.42182 9.53768 9.32948 9.53768 9.27253 9.48072C9.21558 9.42377 9.21558 9.33144 9.27253 9.27448C9.32948 9.21753 9.42182 9.21753 9.47877 9.27448" stroke="white" stroke-width="1.25" stroke-linecap="round" stroke-linejoin="round"/>
<path d="M14.9043 14.6257H11.8359" stroke="white" stroke-width="1.25" stroke-linecap="round" stroke-linejoin="round"/>
<path d="M9.52955 14.5245C9.5865 14.5814 9.5865 14.6738 9.52955 14.7307C9.4726 14.7877 9.38026 14.7877 9.32331 14.7307C9.26636 14.6738 9.26636 14.5814 9.32331 14.5245C9.38026 14.4675 9.4726 14.4675 9.52955 14.5245" stroke="white" stroke-width="1.25" stroke-linecap="round" stroke-linejoin="round"/>
</svg>
