<svg width="24" height="24" viewBox="0 0 24 24" fill="none" xmlns="http://www.w3.org/2000/svg">
<rect width="24" height="24" rx="12" fill="#15B08F"/>
<path d="M10.543 12.0007H14.9174" stroke="white" stroke-width="1.25" stroke-linecap="round" stroke-linejoin="round"/>
<path d="M10.543 14.0319H14.9174" stroke="white" stroke-width="1.25" stroke-linecap="round" stroke-linejoin="round"/>
<path d="M10.543 9.94987H14.9174" stroke="white" stroke-width="1.25" stroke-linecap="round" stroke-linejoin="round"/>
<path d="M9.11335 9.92041C9.09702 9.92041 9.08418 9.93383 9.08418 9.95016C9.08418 9.96649 9.0976 9.97933 9.11393 9.97933C9.13027 9.97933 9.14368 9.96591 9.14368 9.95016C9.1431 9.93383 9.12968 9.92041 9.11335 9.92041" stroke="white" stroke-width="1.25" stroke-linecap="round" stroke-linejoin="round"/>
<path d="M9.11335 11.9709C9.09702 11.9709 9.08418 11.9843 9.08418 12.0007C9.08418 12.017 9.0976 12.0304 9.11393 12.0304C9.13027 12.0304 9.14368 12.017 9.14368 12.0007C9.14368 11.9843 9.12968 11.9709 9.11335 11.9709" stroke="white" stroke-width="1.25" stroke-linecap="round" stroke-linejoin="round"/>
<path d="M9.11335 14.0024C9.09702 14.0024 9.08418 14.0159 9.08418 14.0322C9.08418 14.0485 9.0976 14.0614 9.11393 14.0614C9.13027 14.0614 9.14368 14.0479 9.14368 14.0322C9.1431 14.0159 9.12968 14.0024 9.11335 14.0024" stroke="white" stroke-width="1.25" stroke-linecap="round" stroke-linejoin="round"/>
<path fill-rule="evenodd" clip-rule="evenodd" d="M17.25 9.08333V14.9167C17.25 16.2052 16.2052 17.25 14.9167 17.25H9.08333C7.79475 17.25 6.75 16.2052 6.75 14.9167V9.08333C6.75 7.79475 7.79475 6.75 9.08333 6.75H14.9167C16.2052 6.75 17.25 7.79475 17.25 9.08333Z" stroke="white" stroke-width="1.25" stroke-linecap="round" stroke-linejoin="round"/>
</svg>
