<svg width="24" height="24" viewBox="0 0 24 24" fill="none" xmlns="http://www.w3.org/2000/svg">
<rect width="24" height="24" rx="12" fill="#15B08F"/>
<path fill-rule="evenodd" clip-rule="evenodd" d="M9.66602 7.33268L10.4243 6.38477C10.5352 6.24652 10.7026 6.16602 10.8799 6.16602H13.1193C13.2967 6.16602 13.4641 6.24652 13.5749 6.38477L14.3327 7.33268V7.33268V7.91602C14.3327 8.23802 14.0713 8.49935 13.7493 8.49935H10.2493C9.92735 8.49935 9.66602 8.23802 9.66602 7.91602V7.33268V7.33268H9.66602Z" stroke="white" stroke-width="1.25" stroke-linecap="round" stroke-linejoin="round"/>
<path d="M9.66732 7.33398H8.50065C7.85607 7.33398 7.33398 7.85607 7.33398 8.50065V16.084C7.33398 16.7286 7.85607 17.2507 8.50065 17.2507H15.5007C16.1452 17.2507 16.6673 16.7286 16.6673 16.084V8.50065C16.6673 7.85607 16.1452 7.33398 15.5007 7.33398H14.334" stroke="white" stroke-width="1.25" stroke-linecap="round" stroke-linejoin="round"/>
<path d="M9.66602 11.4167H14.3327" stroke="white" stroke-width="1.25" stroke-linecap="round" stroke-linejoin="round"/>
<path d="M9.66602 14.3327H14.3327" stroke="white" stroke-width="1.25" stroke-linecap="round" stroke-linejoin="round"/>
</svg>
