<svg width="24" height="24" viewBox="0 0 24 24" fill="none" xmlns="http://www.w3.org/2000/svg">
<rect width="24" height="24" rx="12" fill="#15B08F"/>
<path d="M16.6688 10.8331V7.9152C16.6688 7.2706 16.1463 6.74805 15.5017 6.74805H7.9152C7.2706 6.74805 6.74805 7.2706 6.74805 7.9152V16.0853C6.74805 16.7299 7.2706 17.2524 7.9152 17.2524H10.8331" stroke="white" stroke-width="1.25" stroke-linecap="round" stroke-linejoin="round"/>
<path d="M10.3952 13.7508H10.8329" stroke="white" stroke-width="1.25" stroke-linecap="round" stroke-linejoin="round"/>
<path d="M10.3945 11.4168H13.1665" stroke="white" stroke-width="1.25" stroke-linecap="round" stroke-linejoin="round"/>
<path d="M10.3945 9.15507H14.3337" stroke="white" stroke-width="1.25" stroke-linecap="round" stroke-linejoin="round"/>
<path d="M8.57109 13.8237C8.61137 13.8237 8.64403 13.7911 8.64403 13.7508C8.64403 13.7105 8.61137 13.6778 8.57109 13.6778C8.5308 13.6778 8.49814 13.7105 8.49814 13.7508C8.49814 13.7911 8.5308 13.8237 8.57109 13.8237" stroke="white" stroke-width="1.25" stroke-linecap="round" stroke-linejoin="round"/>
<path d="M8.57109 11.4897C8.61137 11.4897 8.64403 11.4571 8.64403 11.4168C8.64403 11.3765 8.61137 11.3438 8.57109 11.3438C8.5308 11.3438 8.49814 11.3765 8.49814 11.4168C8.49814 11.4571 8.5308 11.4897 8.57109 11.4897" stroke="white" stroke-width="1.25" stroke-linecap="round" stroke-linejoin="round"/>
<path d="M8.57109 9.22802C8.61137 9.22802 8.64403 9.19536 8.64403 9.15507C8.64403 9.11478 8.61137 9.08212 8.57109 9.08212C8.5308 9.08212 8.49814 9.11478 8.49814 9.15507C8.49814 9.19536 8.5308 9.22802 8.57109 9.22802" stroke="white" stroke-width="1.25" stroke-linecap="round" stroke-linejoin="round"/>
<path d="M15.2101 12.584C16.6604 12.584 17.8362 13.7597 17.8362 15.2101C17.8362 16.6604 16.6604 17.8362 15.2101 17.8362C13.7597 17.8362 12.584 16.6604 12.584 15.2101C12.584 13.7597 13.7597 12.584 15.2101 12.584" stroke="white" stroke-width="1.25" stroke-linecap="round" stroke-linejoin="round"/>
<path d="M16.1169 14.7559L14.9824 15.8903L14.3008 15.2093" stroke="white" stroke-width="1.25" stroke-linecap="round" stroke-linejoin="round"/>
</svg>
