<svg width="21" height="20" viewBox="0 0 21 20" fill="none" xmlns="http://www.w3.org/2000/svg">
<path fill-rule="evenodd" clip-rule="evenodd" d="M14.7223 17.5H6.389C4.54816 17.5 3.05566 16.0075 3.05566 14.1667V5.83333C3.05566 3.9925 4.54816 2.5 6.389 2.5H14.7223C16.5632 2.5 18.0557 3.9925 18.0557 5.83333V14.1667C18.0557 16.0075 16.5632 17.5 14.7223 17.5Z" stroke="#2A2B2B" stroke-width="1.5" stroke-linecap="round" stroke-linejoin="round"/>
<path d="M11.8515 9.35254L10.2307 10.9734L9.25903 10.0009" stroke="#2A2B2B" stroke-width="1.5" stroke-linecap="round" stroke-linejoin="round"/>
<path fill-rule="evenodd" clip-rule="evenodd" d="M6.61888 10.6785L7.17222 11.4027L7.29222 12.3035C7.35888 12.8035 7.75138 13.1968 8.25138 13.2635L9.15472 13.3843L9.87805 13.9368C10.2781 14.2427 10.8339 14.2427 11.2339 13.9368L11.9581 13.3835H11.9572L12.8589 13.2635C13.3589 13.1968 13.7522 12.8043 13.8189 12.3043L13.9397 11.401C13.9397 11.4018 14.2197 11.0352 14.4931 10.6777C14.7989 10.2777 14.7989 9.72184 14.4931 9.32184L13.9397 8.59767L13.8197 7.69684C13.7531 7.19684 13.3606 6.8035 12.8606 6.73684L11.9564 6.61684L11.2331 6.06434C10.8331 5.7585 10.2772 5.7585 9.87722 6.06434L9.15305 6.61684H9.15388L8.25222 6.736C7.75222 6.80267 7.35888 7.19517 7.29222 7.69517L7.17138 8.5985C7.17138 8.59767 6.89138 8.96434 6.61805 9.32184C6.31305 9.72267 6.31305 10.2777 6.61888 10.6785Z" stroke="#2A2B2B" stroke-width="1.5" stroke-linecap="round" stroke-linejoin="round"/>
</svg>
