<svg width="20" height="20" viewBox="0 0 20 20" fill="none" xmlns="http://www.w3.org/2000/svg">
<path fill-rule="evenodd" clip-rule="evenodd" d="M14.1667 17.5H5.83333C3.9925 17.5 2.5 16.0075 2.5 14.1667V5.83333C2.5 3.9925 3.9925 2.5 5.83333 2.5H14.1667C16.0075 2.5 17.5 3.9925 17.5 5.83333V14.1667C17.5 16.0075 16.0075 17.5 14.1667 17.5Z" stroke="#979999" stroke-width="1.5" stroke-linecap="round" stroke-linejoin="round"/>
<path d="M11.2958 9.35254L9.67501 10.9734L8.70334 10.0009" stroke="#979999" stroke-width="1.5" stroke-linecap="round" stroke-linejoin="round"/>
<path fill-rule="evenodd" clip-rule="evenodd" d="M6.06334 10.6785L6.61667 11.4027L6.73667 12.3035C6.80334 12.8035 7.19584 13.1968 7.69584 13.2635L8.59918 13.3843L9.32251 13.9368C9.72251 14.2427 10.2783 14.2427 10.6783 13.9368L11.4025 13.3835H11.4017L12.3033 13.2635C12.8033 13.1968 13.1967 12.8043 13.2633 12.3043L13.3842 11.401C13.3842 11.4018 13.6642 11.0352 13.9375 10.6777C14.2433 10.2777 14.2433 9.72184 13.9375 9.32184L13.3842 8.59767L13.2642 7.69684C13.1975 7.19684 12.805 6.8035 12.305 6.73684L11.4008 6.61684L10.6775 6.06434C10.2775 5.7585 9.72168 5.7585 9.32168 6.06434L8.59751 6.61684H8.59834L7.69668 6.736C7.19668 6.80267 6.80334 7.19517 6.73667 7.69517L6.61584 8.5985C6.61584 8.59767 6.33584 8.96434 6.06251 9.32184C5.75751 9.72267 5.75751 10.2777 6.06334 10.6785Z" stroke="#979999" stroke-width="1.5" stroke-linecap="round" stroke-linejoin="round"/>
</svg>
