<svg width="20" height="20" viewBox="0 0 20 20" fill="none" xmlns="http://www.w3.org/2000/svg">
<path d="M2.49686 6.66538H17.5031" stroke="#979999" stroke-width="1.5" stroke-linecap="round" stroke-linejoin="round"/>
<path d="M7.91581 10.0003H5.8316" stroke="#979999" stroke-width="1.5" stroke-linecap="round" stroke-linejoin="round"/>
<path d="M9.1663 15.0021H4.9979C3.61661 15.0021 2.49686 13.8823 2.49686 12.5011V5.83161C2.49686 4.45032 3.61661 3.33057 4.9979 3.33057H15.0021C16.3834 3.33057 17.5031 4.45032 17.5031 5.83161V10" stroke="#979999" stroke-width="1.5" stroke-linecap="round" stroke-linejoin="round"/>
<path fill-rule="evenodd" clip-rule="evenodd" d="M11.9113 14.8678L14.8642 11.9126C15.021 11.7557 15.2337 11.6676 15.4555 11.6675C15.6772 11.6674 15.89 11.7554 16.0468 11.9122L17.2583 13.123C17.4151 13.2797 17.5031 13.4922 17.5031 13.7138C17.5031 13.9355 17.4151 14.148 17.2583 14.3047L14.3019 17.2593C14.1455 17.4156 13.9336 17.5033 13.7125 17.5033H11.6674V15.4571C11.6674 15.2361 11.7551 15.0241 11.9113 14.8678Z" stroke="#979999" stroke-width="1.5" stroke-linecap="round" stroke-linejoin="round"/>
</svg>
