<svg width="21" height="20" viewBox="0 0 21 20" fill="none" xmlns="http://www.w3.org/2000/svg">
<path d="M3.05273 6.66538H18.059" stroke="#2A2B2B" stroke-width="1.5" stroke-linecap="round" stroke-linejoin="round"/>
<path d="M8.47165 10.0003H6.38745" stroke="#2A2B2B" stroke-width="1.5" stroke-linecap="round" stroke-linejoin="round"/>
<path d="M9.72218 15.0021H5.55378C4.17249 15.0021 3.05273 13.8823 3.05273 12.5011V5.83161C3.05273 4.45032 4.17249 3.33057 5.55378 3.33057H15.5579C16.9392 3.33057 18.059 4.45032 18.059 5.83161V10" stroke="#2A2B2B" stroke-width="1.5" stroke-linecap="round" stroke-linejoin="round"/>
<path fill-rule="evenodd" clip-rule="evenodd" d="M12.4671 14.8678L15.42 11.9126C15.5768 11.7557 15.7894 11.6676 16.0112 11.6675C16.233 11.6674 16.4457 11.7554 16.6026 11.9122L17.8141 13.123C17.9708 13.2797 18.0589 13.4922 18.0589 13.7138C18.0589 13.9355 17.9708 14.148 17.8141 14.3047L14.8576 17.2593C14.7013 17.4156 14.4893 17.5033 14.2683 17.5033H12.2231V15.4571C12.2231 15.2361 12.3109 15.0241 12.4671 14.8678Z" stroke="#2A2B2B" stroke-width="1.5" stroke-linecap="round" stroke-linejoin="round"/>
</svg>
