<svg width="25" height="24" viewBox="0 0 25 24" fill="none" xmlns="http://www.w3.org/2000/svg">
<rect x="0.25" width="24" height="24" rx="12" fill="#15B08F"/>
<path d="M7.58154 16.6686V16.6686C7.58154 15.2183 8.75728 14.0425 10.2076 14.0425H11.715" stroke="white" stroke-width="1.25" stroke-linecap="round" stroke-linejoin="round"/>
<path d="M15.4598 13.7507V15.5015" stroke="white" stroke-width="1.25" stroke-linecap="round" stroke-linejoin="round"/>
<path d="M17.5023 15.9555C17.5023 15.7048 17.299 15.5015 17.0482 15.5015H13.8713C13.6205 15.5015 13.4172 15.7048 13.4172 15.9555" stroke="white" stroke-width="1.25" stroke-linecap="round" stroke-linejoin="round"/>
<path fill-rule="evenodd" clip-rule="evenodd" d="M14.0008 17.8358H16.9187C17.241 17.8358 17.5023 17.5745 17.5023 17.2522V15.1717C17.5022 14.9353 17.4544 14.7012 17.3616 14.4837L17.1994 14.105C17.1076 13.8902 16.8966 13.7509 16.6631 13.7507H14.2564C14.0227 13.7506 13.8114 13.89 13.7195 14.105L13.5579 14.4831C13.4651 14.7006 13.4173 14.9347 13.4172 15.1712V17.2522C13.4172 17.5745 13.6785 17.8358 14.0008 17.8358Z" stroke="white" stroke-width="1.25" stroke-linecap="round" stroke-linejoin="round"/>
<path d="M14.0037 8.05798C14.7131 8.76728 14.9254 9.83409 14.5415 10.7609C14.1576 11.6877 13.2532 12.2921 12.25 12.2921C11.2469 12.2921 10.3425 11.6877 9.95861 10.7609C9.57474 9.83409 9.787 8.76728 10.4964 8.05798C10.9614 7.59278 11.5923 7.33142 12.25 7.33142C12.9078 7.33142 13.5387 7.59278 14.0037 8.05798" stroke="white" stroke-width="1.25" stroke-linecap="round" stroke-linejoin="round"/>
</svg>
