<svg width="24" height="24" viewBox="0 0 24 24" fill="none" xmlns="http://www.w3.org/2000/svg">
<rect width="24" height="24" rx="12" fill="#15B08F"/>
<path d="M12.584 11.417H14.5042C14.7759 11.417 15.0438 11.4802 15.2868 11.6017L15.6282 11.7724C15.9259 11.9213 16.1749 12.1519 16.3462 12.4373L17.834 14.917" stroke="white" stroke-width="1.25" stroke-linecap="round" stroke-linejoin="round"/>
<path d="M14.9167 17.8333L13.3117 17.2162C12.839 17.0344 12.4383 16.7038 12.17 16.2742L10.3916 13.4263C10.1616 13.0582 10.2162 12.58 10.5231 12.2731V12.2731C10.7041 12.0921 10.9515 11.9935 11.2074 12.0003C11.4632 12.0072 11.705 12.1189 11.8761 12.3093L13.1706 13.75H14.3333" stroke="white" stroke-width="1.25" stroke-linecap="round" stroke-linejoin="round"/>
<path d="M12.5827 13.0964V7.81944C12.5827 7.22881 12.1039 6.75 11.5132 6.75H7.23546C6.64482 6.75 6.16602 7.22881 6.16602 7.81944V14.9491C6.16602 15.5397 6.64482 16.0185 7.23546 16.0185H11.8697" stroke="white" stroke-width="1.25" stroke-linecap="round" stroke-linejoin="round"/>
<path d="M8.54968 12.2094C8.09502 11.7536 8.09548 11.0157 8.55069 10.5605C9.00591 10.1052 9.74382 10.1048 10.1996 10.5594" stroke="white" stroke-width="1.25" stroke-linecap="round" stroke-linejoin="round"/>
</svg>
