<svg width="24" height="24" viewBox="0 0 24 24" fill="none" xmlns="http://www.w3.org/2000/svg">
<rect width="24" height="24" rx="12" fill="#15B08F"/>
<path d="M7.05078 13.7498H8.50102C9.14536 13.7498 9.66769 13.2275 9.66769 12.5831V11.4165C9.66769 10.7721 10.19 10.2498 10.8344 10.2498H12.001C12.6454 10.2498 13.1677 9.72746 13.1677 9.08313V6.88086" stroke="white" stroke-width="1.25" stroke-linecap="round" stroke-linejoin="round"/>
<path d="M17.2158 11.4167C16.9109 8.68551 14.551 6.65183 11.8047 6.75366C9.05836 6.85549 6.85549 9.05836 6.75366 11.8047C6.65183 14.551 8.68551 16.9109 11.4167 17.2158" stroke="white" stroke-width="1.25" stroke-linecap="round" stroke-linejoin="round"/>
<rect x="13.166" y="14.333" width="4.08333" height="2.91667" rx="1.45833" stroke="white" stroke-width="1.25" stroke-linecap="round" stroke-linejoin="round"/>
<path d="M14.041 14.3337V13.4587C14.041 12.8143 14.5634 12.292 15.2077 12.292V12.292C15.852 12.292 16.3743 12.8143 16.3743 13.4587V14.3337" stroke="white" stroke-width="1.25" stroke-linecap="round" stroke-linejoin="round"/>
</svg>
