<svg width="24" height="24" viewBox="0 0 24 24" fill="none" xmlns="http://www.w3.org/2000/svg">
<rect width="24" height="24" rx="12" fill="#15B08F"/>
<path d="M8.84961 10.25V7.91667C8.84961 7.27233 9.37194 6.75 10.0163 6.75H13.9829C14.6273 6.75 15.1496 7.27233 15.1496 7.91667V10.25" stroke="white" stroke-width="1.25" stroke-linecap="round" stroke-linejoin="round"/>
<rect x="8.84961" y="13.0498" width="6.3" height="4.2" rx="1" stroke="white" stroke-width="1.25" stroke-linecap="round" stroke-linejoin="round"/>
<path d="M8.85 15.5H8.29344C7.70502 15.5 7.16709 15.1676 6.90394 14.6413V14.6413C6.8027 14.4388 6.74999 14.2155 6.75 13.9891V11.4167C6.75 10.7723 7.27233 10.25 7.91667 10.25H16.0833C16.7277 10.25 17.25 10.7723 17.25 11.4167V13.9202C17.25 14.1919 17.1867 14.4598 17.0652 14.7028V14.7028C16.821 15.1914 16.3216 15.5 15.7754 15.5H15.15" stroke="white" stroke-width="1.25" stroke-linecap="round" stroke-linejoin="round"/>
</svg>
