<svg width="24" height="24" viewBox="0 0 24 24" fill="none" xmlns="http://www.w3.org/2000/svg">
<rect width="24" height="24" rx="12" fill="#15B08F"/>
<path fill-rule="evenodd" clip-rule="evenodd" d="M8.49682 17.2526H7.32967C7.00742 17.2525 6.74621 16.9913 6.74609 16.669V13.1676C6.74621 12.8453 7.00742 12.5841 7.32967 12.584H8.49682C8.81908 12.5841 9.08028 12.8453 9.0804 13.1676V16.669C9.08028 16.9913 8.81908 17.2525 8.49682 17.2526V17.2526Z" stroke="white" stroke-width="1.25" stroke-linecap="round" stroke-linejoin="round"/>
<path d="M12.5835 14.9177H13.7273C13.9799 14.9179 14.2256 14.8359 14.4276 14.6843L15.8375 13.6269C16.1895 13.3631 16.6819 13.3981 16.993 13.7091V13.7091C17.1589 13.8748 17.2521 14.0997 17.2521 14.3341C17.2521 14.5686 17.1589 14.7935 16.993 14.9592L15.7832 16.1689C15.4573 16.4947 15.0423 16.7168 14.5904 16.8073L12.8805 17.1493C12.5415 17.2171 12.1917 17.2087 11.8564 17.1248L10.3099 16.7385C10.125 16.6919 9.93505 16.6684 9.74439 16.6685H9.08203" stroke="white" stroke-width="1.25" stroke-linecap="round" stroke-linejoin="round"/>
<path d="M12.5835 14.9183H13.4501C13.6846 14.9183 13.9095 14.8252 14.0753 14.6594C14.2411 14.4936 14.3343 14.2687 14.3342 14.0342V13.8573C14.3343 13.4518 14.0583 13.0983 13.6649 13.0001L12.3273 12.6657C12.1099 12.6114 11.8867 12.584 11.6626 12.584V12.584C11.1215 12.5838 10.5925 12.744 10.1424 13.0444L9.08203 13.7511" stroke="white" stroke-width="1.25" stroke-linecap="round" stroke-linejoin="round"/>
<path d="M16.2406 8.92634C16.8103 9.49609 16.8103 10.4198 16.2406 10.9896C15.6708 11.5593 14.7471 11.5593 14.1773 10.9896C13.6076 10.4198 13.6076 9.49609 14.1773 8.92634C14.4509 8.65273 14.822 8.49902 15.2089 8.49902C15.5959 8.49902 15.967 8.65273 16.2406 8.92634" stroke="white" stroke-width="1.25" stroke-linecap="round" stroke-linejoin="round"/>
<path fill-rule="evenodd" clip-rule="evenodd" d="M9.48605 8.96945C8.90753 8.39093 8.90753 7.43915 9.48605 6.86063V6.86063C10.0646 6.28211 11.0164 6.28211 11.5949 6.86063V6.86063C12.1734 7.43915 12.1734 8.39093 11.5949 8.96945V8.96945C11.0164 9.54797 10.0646 9.54797 9.48605 8.96945V8.96945Z" stroke="white" stroke-width="1.25" stroke-linecap="round" stroke-linejoin="round"/>
</svg>
