<svg width="24" height="24" viewBox="0 0 24 24" fill="none" xmlns="http://www.w3.org/2000/svg">
<rect width="24" height="24" rx="12" fill="#15B08F"/>
<ellipse cx="10.2476" cy="10.833" rx="3.50146" ry="1.45894" stroke="white" stroke-width="1.25" stroke-linecap="round" stroke-linejoin="round"/>
<path d="M13.749 12.875C13.749 13.6807 12.1814 14.3339 10.2476 14.3339C8.31375 14.3339 6.74609 13.6807 6.74609 12.875" stroke="white" stroke-width="1.25" stroke-linecap="round" stroke-linejoin="round"/>
<path d="M17.2515 10.833C17.2515 11.6388 15.6838 12.2919 13.75 12.2919" stroke="white" stroke-width="1.25" stroke-linecap="round" stroke-linejoin="round"/>
<path d="M13.749 10.833V15.2098C13.749 16.0156 12.1814 16.6688 10.2476 16.6688C8.31375 16.6688 6.74609 16.0156 6.74609 15.2098V10.833" stroke="white" stroke-width="1.25" stroke-linecap="round" stroke-linejoin="round"/>
<path d="M17.2515 8.79004V13.1669C17.2515 13.9726 15.6838 14.6258 13.75 14.6258" stroke="white" stroke-width="1.25" stroke-linecap="round" stroke-linejoin="round"/>
<path d="M10.5398 9.37941C10.3666 9.23069 10.2613 9.01793 10.248 8.79C10.248 7.98466 11.8179 7.33105 13.7495 7.33105C15.6811 7.33105 17.251 7.98466 17.251 8.79C17.251 9.59533 15.6811 10.2489 13.7495 10.2489C13.6503 10.2489 13.5511 10.2489 13.4577 10.2431" stroke="white" stroke-width="1.25" stroke-linecap="round" stroke-linejoin="round"/>
</svg>
