<svg width="24" height="24" viewBox="0 0 24 24" fill="none" xmlns="http://www.w3.org/2000/svg">
<rect width="24" height="24" rx="12" fill="#15B08F"/>
<path fill-rule="evenodd" clip-rule="evenodd" d="M15.7428 8.7415L14.0931 7.09183C13.8744 6.87308 13.5775 6.75 13.2683 6.75H9.08464C8.44005 6.75 7.91797 7.27208 7.91797 7.91667V16.0833C7.91797 16.7279 8.44005 17.25 9.08464 17.25H14.918C15.5626 17.25 16.0846 16.7279 16.0846 16.0833V9.56633C16.0846 9.25717 15.9616 8.96025 15.7428 8.7415V8.7415Z" stroke="white" stroke-width="1.25" stroke-linecap="round" stroke-linejoin="round"/>
<path d="M16.0846 9.66667H13.7513C13.4293 9.66667 13.168 9.40533 13.168 9.08333V6.75" stroke="white" stroke-width="1.25" stroke-linecap="round" stroke-linejoin="round"/>
<path d="M9.95865 14.8971C9.95865 14.8954 9.95748 14.8942 9.95573 14.8942C9.95398 14.8942 9.95281 14.8954 9.95281 14.8971C9.95281 14.8989 9.95398 14.9001 9.95573 14.9001C9.95748 14.9001 9.95865 14.8989 9.95865 14.8971" stroke="white" stroke-width="1.25" stroke-linecap="round" stroke-linejoin="round"/>
<path d="M9.66797 11.4137H14.3346" stroke="white" stroke-width="1.25" stroke-linecap="round" stroke-linejoin="round"/>
<path d="M9.66797 13.1637H14.3346" stroke="white" stroke-width="1.25" stroke-linecap="round" stroke-linejoin="round"/>
<path d="M14.0426 14.9167C14.0426 14.9149 14.0415 14.9137 14.0397 14.9137C14.038 14.9137 14.0368 14.9149 14.0368 14.9167C14.0368 14.9184 14.038 14.9196 14.0397 14.9196C14.0415 14.9196 14.0426 14.9184 14.0426 14.9167" stroke="white" stroke-width="1.25" stroke-linecap="round" stroke-linejoin="round"/>
<path d="M12.0036 14.9108C12.0036 14.9091 12.0024 14.9079 12.0007 14.9079C11.9989 14.9079 11.9977 14.9091 11.9977 14.9108C11.9977 14.9126 11.9989 14.9137 12.0007 14.9137C12.0024 14.9137 12.0036 14.9126 12.0036 14.9108" stroke="white" stroke-width="1.25" stroke-linecap="round" stroke-linejoin="round"/>
</svg>
