<svg width="24" height="24" viewBox="0 0 24 24" fill="none" xmlns="http://www.w3.org/2000/svg">
<rect width="24" height="24" rx="12" fill="#15B08F"/>
<path d="M7.33008 16.6681V16.6681C7.33008 15.2177 8.50582 14.042 9.95617 14.042H11.4635" stroke="white" stroke-width="1.25" stroke-linecap="round" stroke-linejoin="round"/>
<path d="M15.2098 13.75V15.5007" stroke="white" stroke-width="1.25" stroke-linecap="round" stroke-linejoin="round"/>
<path d="M17.2511 15.9553C17.2511 15.7046 17.0478 15.5013 16.797 15.5013H13.62C13.3693 15.5013 13.166 15.7046 13.166 15.9553" stroke="white" stroke-width="1.25" stroke-linecap="round" stroke-linejoin="round"/>
<path fill-rule="evenodd" clip-rule="evenodd" d="M13.7496 17.835H16.6675C16.9898 17.835 17.2511 17.5738 17.2511 17.2515V15.171C17.251 14.9345 17.2032 14.7005 17.1104 14.483L16.9482 14.1042C16.8564 13.8895 16.6454 13.7501 16.4119 13.75H14.0052C13.7714 13.7499 13.5602 13.8893 13.4683 14.1042L13.3067 14.4824C13.2139 14.6999 13.1661 14.9339 13.166 15.1704V17.2515C13.166 17.5738 13.4273 17.835 13.7496 17.835Z" stroke="white" stroke-width="1.25" stroke-linecap="round" stroke-linejoin="round"/>
<path d="M13.7535 8.05761C14.4629 8.76692 14.6751 9.83372 14.2912 10.7605C13.9074 11.6874 13.003 12.2917 11.9998 12.2917C10.9966 12.2917 10.0922 11.6874 9.70837 10.7605C9.3245 9.83372 9.53675 8.76692 10.2462 8.05761C10.7112 7.59241 11.342 7.33105 11.9998 7.33105C12.6576 7.33105 13.2884 7.59241 13.7535 8.05761" stroke="white" stroke-width="1.25" stroke-linecap="round" stroke-linejoin="round"/>
</svg>
