<svg width="24" height="24" viewBox="0 0 24 24" fill="none" xmlns="http://www.w3.org/2000/svg">
<rect width="24" height="24" rx="12" fill="#15B08F"/>
<path d="M11.9996 14.334H10.5366C10.0956 14.334 9.67097 14.5008 9.34722 14.8001L9.30989 14.8351C9.10455 15.0252 8.94472 15.2586 8.84089 15.5187L8.63672 16.0315" stroke="white" stroke-width="1.25" stroke-linecap="round" stroke-linejoin="round"/>
<path d="M12.6927 12.692C13.4773 12.409 14.0425 11.6705 14.0425 10.7874C14.0425 9.65978 13.1285 8.74512 12.0003 8.74512C11.1171 8.74512 10.3786 9.31037 10.0957 10.0955" stroke="white" stroke-width="1.25" stroke-linecap="round" stroke-linejoin="round"/>
<path d="M7.31044 9.64355C6.32169 11.6117 6.64486 14.0705 8.28752 15.7131C9.93077 17.3564 12.3901 17.679 14.3583 16.6896" stroke="white" stroke-width="1.25" stroke-linecap="round" stroke-linejoin="round"/>
<path d="M8.28711 8.28727V8.28727C10.3381 6.23627 13.6631 6.23627 15.7135 8.28727C17.7639 10.3377 17.7639 13.6621 15.7141 15.7131" stroke="white" stroke-width="1.25" stroke-linecap="round" stroke-linejoin="round"/>
<path d="M16.6673 16.6663L7.33398 7.33301" stroke="white" stroke-width="1.25" stroke-linecap="round" stroke-linejoin="round"/>
</svg>
