<svg width="24" height="24" viewBox="0 0 24 24" fill="none" xmlns="http://www.w3.org/2000/svg">
<rect width="24" height="24" rx="12" fill="#15B08F"/>
<circle cx="12.0002" cy="11.9993" r="5.25219" stroke="white" stroke-width="1.25" stroke-linecap="round" stroke-linejoin="round"/>
<path d="M11.9998 9.66504C12.716 9.66504 13.2965 10.2456 13.2965 10.9617C13.2965 11.6779 12.716 12.2585 11.9998 12.2585C11.2837 12.2585 10.7031 11.6779 10.7031 10.9617C10.7031 10.2456 11.2837 9.66504 11.9998 9.66504" stroke="white" stroke-width="1.25" stroke-linecap="round" stroke-linejoin="round"/>
<path fill-rule="evenodd" clip-rule="evenodd" d="M14.3346 14.6099C13.0454 15.8991 10.9552 15.8991 9.66602 14.6099C9.73424 14.4394 9.83948 14.2861 9.97414 14.1612C10.2018 13.9498 10.5009 13.8322 10.8116 13.832H13.1896C13.5001 13.8322 13.7991 13.9498 14.0265 14.1612C14.1615 14.2858 14.2668 14.4392 14.3346 14.6099Z" stroke="white" stroke-width="1.25" stroke-linecap="round" stroke-linejoin="round"/>
</svg>
