<svg width="24" height="24" viewBox="0 0 24 24" fill="none" xmlns="http://www.w3.org/2000/svg">
<rect width="24" height="24" rx="12" fill="#15B08F"/>
<path d="M15.3555 7.91484H16.8144" stroke="white" stroke-width="1.25" stroke-linecap="round" stroke-linejoin="round"/>
<path d="M16.0848 8.64449V7.18555" stroke="white" stroke-width="1.25" stroke-linecap="round" stroke-linejoin="round"/>
<path d="M16.0843 10.2487C14.7952 10.2487 13.75 9.2035 13.75 7.91438C13.75 6.62526 14.7952 5.58008 16.0843 5.58008C17.3734 5.58008 18.4186 6.62526 18.4186 7.91438C18.4186 9.2035 17.3734 10.2487 16.0843 10.2487" stroke="white" stroke-width="1.25" stroke-linecap="round" stroke-linejoin="round"/>
<path d="M11.7069 10.2637C12.4229 10.2637 13.0036 10.8443 13.0036 11.5604C13.0036 12.2764 12.4229 12.8571 11.7069 12.8571C10.9908 12.8571 10.4102 12.2764 10.4102 11.5604C10.4102 10.8443 10.9908 10.2637 11.7069 10.2637" stroke="white" stroke-width="1.25" stroke-linecap="round" stroke-linejoin="round"/>
<path d="M14.0417 14.9322C13.974 14.7612 13.8683 14.6083 13.7335 14.4834V14.4834C13.5054 14.2722 13.2077 14.1543 12.8967 14.1543C12.3779 14.1543 11.0374 14.1543 10.5186 14.1543C10.2076 14.1543 9.90935 14.2722 9.68118 14.4834V14.4834C9.54637 14.6083 9.44133 14.7618 9.37305 14.9322" stroke="white" stroke-width="1.25" stroke-linecap="round" stroke-linejoin="round"/>
<path d="M13.7545 7.77749C13.13 7.49387 12.4391 7.33105 11.7084 7.33105C8.96914 7.33105 6.74805 9.55215 6.74805 12.2915C6.74805 15.0308 8.96914 17.2519 11.7084 17.2519C14.4478 17.2519 16.6688 15.0308 16.6688 12.2915C16.6688 11.5608 16.506 10.8699 16.2224 10.2454" stroke="white" stroke-width="1.25" stroke-linecap="round" stroke-linejoin="round"/>
</svg>
