<svg width="24" height="24" viewBox="0 0 24 24" fill="none" xmlns="http://www.w3.org/2000/svg">
<rect width="24" height="24" rx="12" fill="#15B08F"/>
<path fill-rule="evenodd" clip-rule="evenodd" d="M15.7428 8.7415L14.0931 7.09183C13.8744 6.87308 13.5775 6.75 13.2683 6.75H9.08464C8.44005 6.75 7.91797 7.27208 7.91797 7.91667V16.0833C7.91797 16.7279 8.44005 17.25 9.08464 17.25H14.918C15.5626 17.25 16.0846 16.7279 16.0846 16.0833V9.56633C16.0846 9.25717 15.9616 8.96025 15.7428 8.7415V8.7415Z" stroke="white" stroke-width="1.25" stroke-linecap="round" stroke-linejoin="round"/>
<path d="M16.0846 9.66667H13.7513C13.4293 9.66667 13.168 9.40533 13.168 9.08333V6.75" stroke="white" stroke-width="1.25" stroke-linecap="round" stroke-linejoin="round"/>
<path d="M12.0007 11.417V15.5003" stroke="white" stroke-width="1.25" stroke-linecap="round" stroke-linejoin="round"/>
<path d="M9.66797 13.4587H14.3346" stroke="white" stroke-width="1.25" stroke-linecap="round" stroke-linejoin="round"/>
<path fill-rule="evenodd" clip-rule="evenodd" d="M13.7513 15.5003H10.2513C9.9293 15.5003 9.66797 15.239 9.66797 14.917V12.0003C9.66797 11.6783 9.9293 11.417 10.2513 11.417H13.7513C14.0733 11.417 14.3346 11.6783 14.3346 12.0003V14.917C14.3346 15.239 14.0733 15.5003 13.7513 15.5003Z" stroke="white" stroke-width="1.25" stroke-linecap="round" stroke-linejoin="round"/>
</svg>
