<svg width="24" height="24" viewBox="0 0 24 24" fill="none" xmlns="http://www.w3.org/2000/svg">
<rect width="24" height="24" rx="12" fill="#15B08F"/>
<path fill-rule="evenodd" clip-rule="evenodd" d="M12.2392 11.8463H9.08398V10.4655C9.08398 9.70192 9.7029 9.08301 10.4665 9.08301H12.2392C13.0022 9.08301 13.6206 9.70134 13.6206 10.4643V10.4643C13.6212 11.2273 13.0022 11.8463 12.2392 11.8463Z" stroke="white" stroke-width="1.25" stroke-linecap="round" stroke-linejoin="round"/>
<path fill-rule="evenodd" clip-rule="evenodd" d="M9.08398 11.8467H13.536C14.299 11.8467 14.9173 12.465 14.9173 13.228V13.5348C14.9173 14.2984 14.299 14.9168 13.536 14.9168H10.4665C9.7029 14.9168 9.08398 14.2978 9.08398 13.5343V11.8467V11.8467Z" stroke="white" stroke-width="1.25" stroke-linecap="round" stroke-linejoin="round"/>
<path fill-rule="evenodd" clip-rule="evenodd" d="M9.375 6.75H14.6273C16.0757 6.75 17.25 7.92425 17.25 9.37267V14.6279C17.25 16.0757 16.0757 17.25 14.6273 17.25H9.37267C7.92425 17.25 6.75 16.0757 6.75 14.6273V9.375C6.75 7.92542 7.92542 6.75 9.375 6.75V6.75Z" stroke="white" stroke-width="1.25" stroke-linecap="round" stroke-linejoin="round"/>
</svg>
