<svg width="24" height="24" viewBox="0 0 24 24" fill="none" xmlns="http://www.w3.org/2000/svg">
<rect width="24" height="24" rx="12" fill="#15B08F"/>
<path d="M6.75 14.9167V7.91667C6.75 7.27233 7.27233 6.75 7.91667 6.75H16.0833C16.7277 6.75 17.25 7.27233 17.25 7.91667V14.9167" stroke="white" stroke-width="1.25" stroke-linecap="round" stroke-linejoin="round"/>
<path fill-rule="evenodd" clip-rule="evenodd" d="M6.45833 14.917H17.5417C17.8638 14.917 18.125 15.1782 18.125 15.5003V15.5003C18.125 16.4668 17.3415 17.2503 16.375 17.2503H7.625C6.6585 17.2503 5.875 16.4668 5.875 15.5003V15.5003C5.875 15.1782 6.13617 14.917 6.45833 14.917Z" stroke="white" stroke-width="1.25" stroke-linecap="round" stroke-linejoin="round"/>
<path fill-rule="evenodd" clip-rule="evenodd" d="M9.66602 9.43016V12.3416C9.66807 12.4429 9.72235 12.5359 9.80953 12.5876C9.89671 12.6393 10.0044 12.6422 10.0942 12.5953C10.7293 12.3078 11.4738 12.4172 11.9993 12.8753C12.5249 12.4172 13.2693 12.3078 13.9045 12.5953C13.9943 12.6421 14.102 12.6392 14.1892 12.5876C14.2763 12.5359 14.3306 12.4429 14.3327 12.3416V9.43013C14.3292 9.34887 14.2966 9.27157 14.2408 9.2124C13.5969 8.61844 12.5935 8.65872 11.9993 9.30238C11.4052 8.65874 10.4018 8.61843 9.75795 9.21235C9.70212 9.27154 9.66949 9.34886 9.66602 9.43016Z" stroke="white" stroke-width="1.25" stroke-linecap="round" stroke-linejoin="round"/>
<path d="M12.0007 12.8747V9.30176" stroke="white" stroke-width="1.25" stroke-linecap="round" stroke-linejoin="round"/>
</svg>
