<svg width="20" height="20" viewBox="0 0 20 20" fill="none" xmlns="http://www.w3.org/2000/svg">
<path fill-rule="evenodd" clip-rule="evenodd" d="M17.4383 13.3324V6.66742C17.4383 6.07158 17.1208 5.52158 16.605 5.22408L10.8333 1.89158C10.3175 1.59408 9.68251 1.59408 9.16668 1.89158L3.39501 5.22408C2.87918 5.52158 2.56168 6.07242 2.56168 6.66742V13.3316C2.56168 13.9274 2.87918 14.4774 3.39501 14.7749L9.16668 18.1083C9.68251 18.4058 10.3175 18.4058 10.8333 18.1083L16.605 14.7758C17.1208 14.4783 17.4383 13.9274 17.4383 13.3324Z" stroke="#979999" stroke-width="1.5" stroke-linecap="round" stroke-linejoin="round"/>
<path d="M5.14166 10.5249L7.64166 11.9749" stroke="#979999" stroke-width="1.5" stroke-linecap="round" stroke-linejoin="round"/>
<path d="M2.785 5.83398L10 9.99982L17.215 5.83398" stroke="#979999" stroke-width="1.5" stroke-linecap="round" stroke-linejoin="round"/>
<path d="M10 18.3333V10" stroke="#979999" stroke-width="1.5" stroke-linecap="round" stroke-linejoin="round"/>
<path d="M6.39166 7.91667L13.8333 3.625" stroke="#979999" stroke-width="1.5" stroke-linecap="round" stroke-linejoin="round"/>
</svg>
