<svg width="21" height="20" viewBox="0 0 21 20" fill="none" xmlns="http://www.w3.org/2000/svg">
<path fill-rule="evenodd" clip-rule="evenodd" d="M17.9941 13.3324V6.66742C17.9941 6.07158 17.6766 5.52158 17.1608 5.22408L11.3891 1.89158C10.8733 1.59408 10.2383 1.59408 9.72243 1.89158L3.95076 5.22408C3.43493 5.52158 3.11743 6.07242 3.11743 6.66742V13.3316C3.11743 13.9274 3.43493 14.4774 3.95076 14.7749L9.72243 18.1083C10.2383 18.4058 10.8733 18.4058 11.3891 18.1083L17.1608 14.7758C17.6766 14.4783 17.9941 13.9274 17.9941 13.3324Z" stroke="#2A2B2B" stroke-width="1.5" stroke-linecap="round" stroke-linejoin="round"/>
<path d="M5.69751 10.5249L8.19751 11.9749" stroke="#2A2B2B" stroke-width="1.5" stroke-linecap="round" stroke-linejoin="round"/>
<path d="M3.34058 5.83398L10.5556 9.99982L17.7706 5.83398" stroke="#2A2B2B" stroke-width="1.5" stroke-linecap="round" stroke-linejoin="round"/>
<path d="M10.5556 18.3333V10" stroke="#2A2B2B" stroke-width="1.5" stroke-linecap="round" stroke-linejoin="round"/>
<path d="M6.94727 7.91667L14.3889 3.625" stroke="#2A2B2B" stroke-width="1.5" stroke-linecap="round" stroke-linejoin="round"/>
</svg>
