<svg width="20" height="20" viewBox="0 0 20 20" fill="none" xmlns="http://www.w3.org/2000/svg">
<path d="M18.3333 18.3332H1.66666" stroke="#979999" stroke-width="1.5" stroke-linecap="round" stroke-linejoin="round"/>
<path d="M4.58334 5.83333V3.33333C4.58334 2.8731 4.95644 2.5 5.41668 2.5H6.25001C6.71025 2.5 7.08334 2.8731 7.08334 3.33333V5.83333" stroke="#979999" stroke-width="1.5" stroke-linecap="round" stroke-linejoin="round"/>
<path d="M9.58334 5.8335V4.16683C9.58334 3.70659 9.95644 3.3335 10.4167 3.3335H11.25C11.7102 3.3335 12.0833 3.70659 12.0833 4.16683V5.8335" stroke="#979999" stroke-width="1.5" stroke-linecap="round" stroke-linejoin="round"/>
<path d="M10.8333 9.16667H5.83334" stroke="#979999" stroke-width="1.5" stroke-linecap="round" stroke-linejoin="round"/>
<path d="M10.8333 11.6667H5.83334" stroke="#979999" stroke-width="1.5" stroke-linecap="round" stroke-linejoin="round"/>
<path d="M14.1667 11.6665H16.6667C17.1269 11.6665 17.5 12.0396 17.5 12.4998V18.3332" stroke="#979999" stroke-width="1.5" stroke-linecap="round" stroke-linejoin="round"/>
<path d="M2.5 18.3335V6.66683C2.5 6.20659 2.8731 5.8335 3.33333 5.8335H13.3333C13.7936 5.8335 14.1667 6.20659 14.1667 6.66683V18.3335" stroke="#979999" stroke-width="1.5" stroke-linecap="round" stroke-linejoin="round"/>
<path fill-rule="evenodd" clip-rule="evenodd" d="M7.49999 14.1665H9.16666C9.62689 14.1665 9.99999 14.5396 9.99999 14.9998V18.3332H6.66666V14.9998C6.66666 14.5396 7.03975 14.1665 7.49999 14.1665Z" stroke="#979999" stroke-width="1.5" stroke-linecap="round" stroke-linejoin="round"/>
</svg>
