<svg width="21" height="20" viewBox="0 0 21 20" fill="none" xmlns="http://www.w3.org/2000/svg">
<path d="M18.8891 18.3332H2.22241" stroke="#2A2B2B" stroke-width="1.5" stroke-linecap="round" stroke-linejoin="round"/>
<path d="M5.13892 5.83333V3.33333C5.13892 2.8731 5.51201 2.5 5.97225 2.5H6.80558C7.26582 2.5 7.63892 2.8731 7.63892 3.33333V5.83333" stroke="#2A2B2B" stroke-width="1.5" stroke-linecap="round" stroke-linejoin="round"/>
<path d="M10.1389 5.8335V4.16683C10.1389 3.70659 10.512 3.3335 10.9722 3.3335H11.8056C12.2658 3.3335 12.6389 3.70659 12.6389 4.16683V5.8335" stroke="#2A2B2B" stroke-width="1.5" stroke-linecap="round" stroke-linejoin="round"/>
<path d="M11.3889 9.16667H6.38892" stroke="#2A2B2B" stroke-width="1.5" stroke-linecap="round" stroke-linejoin="round"/>
<path d="M11.3889 11.6667H6.38892" stroke="#2A2B2B" stroke-width="1.5" stroke-linecap="round" stroke-linejoin="round"/>
<path d="M14.7224 11.6665H17.2224C17.6826 11.6665 18.0557 12.0396 18.0557 12.4998V18.3332" stroke="#2A2B2B" stroke-width="1.5" stroke-linecap="round" stroke-linejoin="round"/>
<path d="M3.05566 18.3335V6.66683C3.05566 6.20659 3.42876 5.8335 3.889 5.8335H13.889C14.3492 5.8335 14.7223 6.20659 14.7223 6.66683V18.3335" stroke="#2A2B2B" stroke-width="1.5" stroke-linecap="round" stroke-linejoin="round"/>
<path fill-rule="evenodd" clip-rule="evenodd" d="M8.05575 14.1665H9.72241C10.1826 14.1665 10.5557 14.5396 10.5557 14.9998V18.3332H7.22241V14.9998C7.22241 14.5396 7.59551 14.1665 8.05575 14.1665Z" stroke="#2A2B2B" stroke-width="1.5" stroke-linecap="round" stroke-linejoin="round"/>
</svg>
