<svg width="25" height="25" viewBox="0 0 25 25" fill="none" xmlns="http://www.w3.org/2000/svg">
<rect x="0.888916" y="0.0698242" width="24" height="24" rx="12" fill="#15B08F"/>
<path d="M7.646 12.6479L8.80562 12.6532" stroke="white" stroke-width="1.25" stroke-linecap="round" stroke-linejoin="round"/>
<path d="M8.80554 10.903H9.97221" stroke="white" stroke-width="1.25" stroke-linecap="round" stroke-linejoin="round"/>
<path d="M13.578 14.695H9.97229" stroke="white" stroke-width="1.25" stroke-linecap="round" stroke-linejoin="round"/>
<path d="M15.5359 11.7122H13.519C13.2062 11.7122 12.9393 11.4861 12.8879 11.1777L12.5505 9.15332" stroke="white" stroke-width="1.25" stroke-linecap="round" stroke-linejoin="round"/>
<path d="M15.3232 14.695H15.7495C16.1027 14.695 16.389 14.4087 16.389 14.0556V12.8285C16.389 12.6589 16.3216 12.4962 16.2017 12.3763L15.5364 11.711L14.5521 9.74243C14.3716 9.38139 14.0025 9.15333 13.5989 9.15332H9.97229" stroke="white" stroke-width="1.25" stroke-linecap="round" stroke-linejoin="round"/>
<path d="M7.63892 9.15316C7.63892 7.86449 8.68358 6.81982 9.97225 6.81982H15.8056C17.0942 6.81982 18.1389 7.86449 18.1389 9.15316V14.9865C18.1389 16.2752 17.0942 17.3198 15.8056 17.3198H9.97225C8.68358 17.3198 7.63892 16.2752 7.63892 14.9865" stroke="white" stroke-width="1.25" stroke-linecap="round" stroke-linejoin="round"/>
<path d="M14.4503 13.8252C14.9321 13.8252 15.3227 14.2157 15.3227 14.6975C15.3227 15.1793 14.9322 15.5699 14.4504 15.5699C13.9686 15.5699 13.578 15.1794 13.578 14.6976V14.6975C13.578 14.2157 13.9685 13.8252 14.4503 13.8252V13.8252" stroke="white" stroke-width="1.25" stroke-linecap="round" stroke-linejoin="round"/>
</svg>
