<svg width="25" height="25" viewBox="0 0 25 25" fill="none" xmlns="http://www.w3.org/2000/svg">
<rect x="0.555664" y="0.0698242" width="24" height="24" rx="12" fill="#15B08F"/>
<path d="M17.2243 10.9029V7.98502C17.2243 7.34042 16.7017 6.81787 16.0571 6.81787H8.47062C7.82602 6.81787 7.30347 7.34042 7.30347 7.98502V16.1551C7.30347 16.7997 7.82602 17.3222 8.47062 17.3222H11.3885" stroke="white" stroke-width="1.25" stroke-linecap="round" stroke-linejoin="round"/>
<path d="M10.9508 13.8206H11.3884" stroke="white" stroke-width="1.25" stroke-linecap="round" stroke-linejoin="round"/>
<path d="M10.9508 11.4861H13.7228" stroke="white" stroke-width="1.25" stroke-linecap="round" stroke-linejoin="round"/>
<path d="M10.9508 9.22489H14.8899" stroke="white" stroke-width="1.25" stroke-linecap="round" stroke-linejoin="round"/>
<path d="M9.12712 13.8935C9.1674 13.8935 9.20006 13.8609 9.20006 13.8206C9.20006 13.7803 9.1674 13.7476 9.12712 13.7476C9.08683 13.7476 9.05417 13.7803 9.05417 13.8206C9.05417 13.8609 9.08683 13.8935 9.12712 13.8935" stroke="white" stroke-width="1.25" stroke-linecap="round" stroke-linejoin="round"/>
<path d="M9.12712 11.5591C9.1674 11.5591 9.20006 11.5264 9.20006 11.4861C9.20006 11.4458 9.1674 11.4132 9.12712 11.4132C9.08683 11.4132 9.05417 11.4458 9.05417 11.4861C9.05417 11.5264 9.08683 11.5591 9.12712 11.5591" stroke="white" stroke-width="1.25" stroke-linecap="round" stroke-linejoin="round"/>
<path d="M9.12712 9.29784C9.1674 9.29784 9.20006 9.26518 9.20006 9.22489C9.20006 9.18461 9.1674 9.15195 9.12712 9.15195C9.08683 9.15195 9.05417 9.18461 9.05417 9.22489C9.05417 9.26518 9.08683 9.29784 9.12712 9.29784" stroke="white" stroke-width="1.25" stroke-linecap="round" stroke-linejoin="round"/>
<path d="M15.7653 12.6533C17.2156 12.6533 18.3913 13.8291 18.3913 15.2794C18.3913 16.7298 17.2156 17.9055 15.7653 17.9055C14.3149 17.9055 13.1392 16.7298 13.1392 15.2794C13.1392 13.8291 14.3149 12.6533 15.7653 12.6533" stroke="white" stroke-width="1.25" stroke-linecap="round" stroke-linejoin="round"/>
<path d="M16.6734 14.8262L15.5389 15.9606L14.8573 15.2796" stroke="white" stroke-width="1.25" stroke-linecap="round" stroke-linejoin="round"/>
</svg>
