<svg width="25" height="25" viewBox="0 0 25 25" fill="none" xmlns="http://www.w3.org/2000/svg">
<rect x="0.555664" y="0.0698242" width="24" height="24" rx="12" fill="#15B08F"/>
<path d="M11.0979 12.07H15.4723" stroke="white" stroke-width="1.25" stroke-linecap="round" stroke-linejoin="round"/>
<path d="M11.0979 14.1022H15.4723" stroke="white" stroke-width="1.25" stroke-linecap="round" stroke-linejoin="round"/>
<path d="M11.0979 10.0187H15.4723" stroke="white" stroke-width="1.25" stroke-linecap="round" stroke-linejoin="round"/>
<path d="M9.66816 9.98975C9.65183 9.98975 9.63899 10.0032 9.63899 10.0195C9.63899 10.0358 9.65241 10.0487 9.66874 10.0487C9.68508 10.0487 9.69849 10.0352 9.69849 10.0195C9.69791 10.0032 9.68449 9.98975 9.66816 9.98975" stroke="white" stroke-width="1.25" stroke-linecap="round" stroke-linejoin="round"/>
<path d="M9.66816 12.0402C9.65183 12.0402 9.63899 12.0537 9.63899 12.07C9.63899 12.0863 9.65241 12.0997 9.66874 12.0997C9.68508 12.0997 9.69849 12.0863 9.69849 12.07C9.69849 12.0537 9.68449 12.0402 9.66816 12.0402" stroke="white" stroke-width="1.25" stroke-linecap="round" stroke-linejoin="round"/>
<path d="M9.66816 14.0728C9.65183 14.0728 9.63899 14.0862 9.63899 14.1025C9.63899 14.1188 9.65241 14.1317 9.66874 14.1317C9.68508 14.1317 9.69849 14.1183 9.69849 14.1025C9.69791 14.0862 9.68449 14.0728 9.66816 14.0728" stroke="white" stroke-width="1.25" stroke-linecap="round" stroke-linejoin="round"/>
<path fill-rule="evenodd" clip-rule="evenodd" d="M17.8057 9.15316V14.9865C17.8057 16.2751 16.7609 17.3198 15.4723 17.3198H9.639C8.35041 17.3198 7.30566 16.2751 7.30566 14.9865V9.15316C7.30566 7.86457 8.35041 6.81982 9.639 6.81982H15.4723C16.7609 6.81982 17.8057 7.86457 17.8057 9.15316Z" stroke="white" stroke-width="1.25" stroke-linecap="round" stroke-linejoin="round"/>
</svg>
