<svg width="25" height="25" viewBox="0 0 25 25" fill="none" xmlns="http://www.w3.org/2000/svg">
<rect x="0.555664" y="0.0698242" width="24" height="24" rx="12" fill="#15B08F"/>
<path d="M7.88696 16.7384V16.7384C7.88696 15.288 9.0627 14.1123 10.5131 14.1123H12.0204" stroke="white" stroke-width="1.25" stroke-linecap="round" stroke-linejoin="round"/>
<path d="M15.7653 13.8208V15.5715" stroke="white" stroke-width="1.25" stroke-linecap="round" stroke-linejoin="round"/>
<path d="M17.8078 16.0251C17.8078 15.7744 17.6045 15.5711 17.3538 15.5711H14.1768C13.9261 15.5711 13.7228 15.7744 13.7228 16.0251" stroke="white" stroke-width="1.25" stroke-linecap="round" stroke-linejoin="round"/>
<path fill-rule="evenodd" clip-rule="evenodd" d="M14.3064 17.9058H17.2242C17.5465 17.9058 17.8078 17.6446 17.8078 17.3223V15.2418C17.8078 15.0053 17.7599 14.7713 17.6672 14.5538L17.5049 14.175C17.4132 13.9603 17.2022 13.8209 16.9686 13.8208H14.562C14.3282 13.8207 14.1169 13.9601 14.0251 14.175L13.8634 14.5532C13.7707 14.7707 13.7228 15.0047 13.7228 15.2412V17.3223C13.7228 17.6446 13.9841 17.9058 14.3064 17.9058Z" stroke="white" stroke-width="1.25" stroke-linecap="round" stroke-linejoin="round"/>
<path d="M14.3092 8.12792C15.0186 8.83723 15.2309 9.90403 14.847 10.8309C14.4632 11.7577 13.5588 12.362 12.5556 12.362C11.5524 12.362 10.648 11.7577 10.2642 10.8309C9.88028 9.90403 10.0925 8.83723 10.8019 8.12792C11.267 7.66273 11.8978 7.40137 12.5556 7.40137C13.2134 7.40137 13.8442 7.66273 14.3092 8.12792" stroke="white" stroke-width="1.25" stroke-linecap="round" stroke-linejoin="round"/>
</svg>
