<svg width="25" height="25" viewBox="0 0 25 25" fill="none" xmlns="http://www.w3.org/2000/svg">
<rect x="0.22229" y="0.0698242" width="24" height="24" rx="12" fill="#15B08F"/>
<path d="M7.55359 16.7384V16.7384C7.55359 15.288 8.72933 14.1123 10.1797 14.1123H11.6871" stroke="white" stroke-width="1.25" stroke-linecap="round" stroke-linejoin="round"/>
<path d="M15.4319 13.8208V15.5715" stroke="white" stroke-width="1.25" stroke-linecap="round" stroke-linejoin="round"/>
<path d="M17.4744 16.0251C17.4744 15.7744 17.2712 15.5711 17.0204 15.5711H13.8434C13.5927 15.5711 13.3894 15.7744 13.3894 16.0251" stroke="white" stroke-width="1.25" stroke-linecap="round" stroke-linejoin="round"/>
<path fill-rule="evenodd" clip-rule="evenodd" d="M13.973 17.9058H16.8909C17.2132 17.9058 17.4744 17.6446 17.4744 17.3223V15.2418C17.4744 15.0053 17.4266 14.7713 17.3338 14.5538L17.1716 14.175C17.0798 13.9603 16.8688 13.8209 16.6353 13.8208H14.2286C13.9948 13.8207 13.7836 13.9601 13.6917 14.175L13.53 14.5532C13.4373 14.7707 13.3894 15.0047 13.3894 15.2412V17.3223C13.3894 17.6446 13.6507 17.9058 13.973 17.9058Z" stroke="white" stroke-width="1.25" stroke-linecap="round" stroke-linejoin="round"/>
<path d="M13.9759 8.12792C14.6853 8.83723 14.8975 9.90403 14.5137 10.8309C14.1298 11.7577 13.2254 12.362 12.2222 12.362C11.219 12.362 10.3146 11.7577 9.93078 10.8309C9.54691 9.90403 9.75917 8.83723 10.4686 8.12792C10.9336 7.66273 11.5644 7.40137 12.2222 7.40137C12.88 7.40137 13.5108 7.66273 13.9759 8.12792" stroke="white" stroke-width="1.25" stroke-linecap="round" stroke-linejoin="round"/>
</svg>
