<svg width="25" height="25" viewBox="0 0 25 25" fill="none" xmlns="http://www.w3.org/2000/svg">
<rect x="0.555664" y="0.0698242" width="24" height="24" rx="12" fill="#15B08F"/>
<circle cx="12.5557" cy="12.0701" r="5.25219" stroke="white" stroke-width="1.25" stroke-linecap="round" stroke-linejoin="round"/>
<path d="M12.5556 9.73584C13.2718 9.73584 13.8523 10.3164 13.8523 11.0325C13.8523 11.7487 13.2718 12.3293 12.5556 12.3293C11.8395 12.3293 11.2589 11.7487 11.2589 11.0325C11.2589 10.3164 11.8395 9.73584 12.5556 9.73584" stroke="white" stroke-width="1.25" stroke-linecap="round" stroke-linejoin="round"/>
<path fill-rule="evenodd" clip-rule="evenodd" d="M14.8899 14.6803C13.6007 15.9694 11.5105 15.9694 10.2213 14.6803C10.2895 14.5097 10.3948 14.3564 10.5294 14.2315C10.7571 14.0201 11.0562 13.9025 11.3669 13.9023H13.7449C14.0554 13.9025 14.3544 14.0201 14.5818 14.2315C14.7168 14.3561 14.8221 14.5095 14.8899 14.6803Z" stroke="white" stroke-width="1.25" stroke-linecap="round" stroke-linejoin="round"/>
</svg>
