<svg width="39" height="20" viewBox="0 0 39 20" fill="none" xmlns="http://www.w3.org/2000/svg">
<path d="M10.652 15C10.0453 15 9.56 14.8223 9.196 14.467C8.84067 14.1117 8.663 13.635 8.663 13.037C8.663 12.4043 8.84933 11.9147 9.222 11.568C9.60333 11.2127 10.1623 11.035 10.899 11.035H11.666V9.605H10.899C10.1623 9.605 9.60333 9.43167 9.222 9.085C8.84933 8.72967 8.663 8.23567 8.663 7.603C8.663 7.005 8.84067 6.52833 9.196 6.173C9.56 5.81767 10.0453 5.64 10.652 5.64C11.1373 5.64 11.5187 5.731 11.796 5.913C12.082 6.095 12.2813 6.33767 12.394 6.641C12.5153 6.94433 12.576 7.278 12.576 7.642V8.721H14.006V7.642C14.006 7.278 14.0623 6.94433 14.175 6.641C14.2963 6.33767 14.4957 6.095 14.773 5.913C15.059 5.731 15.4447 5.64 15.93 5.64C16.5367 5.64 17.0177 5.81767 17.373 6.173C17.737 6.52833 17.919 7.005 17.919 7.603C17.919 8.23567 17.7327 8.72967 17.36 9.085C16.9873 9.43167 16.4283 9.605 15.683 9.605H14.916V11.035H15.683C16.4283 11.035 16.9873 11.2127 17.36 11.568C17.7327 11.9147 17.919 12.4043 17.919 13.037C17.919 13.635 17.737 14.1117 17.373 14.467C17.0177 14.8223 16.5367 15 15.93 15C15.4447 15 15.059 14.909 14.773 14.727C14.4957 14.545 14.2963 14.3023 14.175 13.999C14.0623 13.6957 14.006 13.362 14.006 12.998V11.919H12.576V12.998C12.576 13.362 12.5153 13.6957 12.394 13.999C12.2813 14.3023 12.082 14.545 11.796 14.727C11.5187 14.909 11.1373 15 10.652 15ZM14.916 7.616V8.721H15.683C16.1423 8.721 16.476 8.63 16.684 8.448C16.892 8.25733 16.996 7.97567 16.996 7.603C16.996 7.22167 16.892 6.94867 16.684 6.784C16.4847 6.61933 16.2333 6.537 15.93 6.537C15.592 6.537 15.3363 6.63667 15.163 6.836C14.9983 7.02667 14.916 7.28667 14.916 7.616ZM10.899 8.721H11.666V7.616C11.666 7.28667 11.5793 7.02667 11.406 6.836C11.2413 6.63667 10.99 6.537 10.652 6.537C10.3487 6.537 10.093 6.61933 9.885 6.784C9.68567 6.94867 9.586 7.22167 9.586 7.603C9.586 7.97567 9.69 8.25733 9.898 8.448C10.106 8.63 10.4397 8.721 10.899 8.721ZM12.576 11.035H14.006V9.605H12.576V11.035ZM10.652 14.103C10.99 14.103 11.2413 14.0077 11.406 13.817C11.5793 13.6177 11.666 13.3533 11.666 13.024V11.919H10.899C10.4397 11.919 10.106 12.0143 9.898 12.205C9.69 12.387 9.586 12.6643 9.586 13.037C9.586 13.4183 9.68567 13.6913 9.885 13.856C10.093 14.0207 10.3487 14.103 10.652 14.103ZM14.916 13.024C14.916 13.3533 14.9983 13.6177 15.163 13.817C15.3363 14.0077 15.592 14.103 15.93 14.103C16.2333 14.103 16.4847 14.0207 16.684 13.856C16.892 13.6913 16.996 13.4183 16.996 13.037C16.996 12.6643 16.892 12.387 16.684 12.205C16.476 12.0143 16.1423 11.919 15.683 11.919H14.916V13.024ZM25.8509 15.195C25.1923 15.195 24.5986 15.0802 24.0699 14.8505C23.5413 14.6208 23.0906 14.2937 22.7179 13.869C22.3496 13.4443 22.0679 12.933 21.8729 12.335C21.6779 11.7327 21.5804 11.061 21.5804 10.32C21.5804 9.34067 21.7494 8.487 22.0874 7.759C22.4298 7.02667 22.9194 6.459 23.5564 6.056C24.1934 5.653 24.9583 5.4515 25.8509 5.4515C26.8476 5.4515 27.6579 5.6855 28.2819 6.1535C28.9103 6.61717 29.3479 7.24117 29.5949 8.0255L28.6329 8.2595C28.4293 7.6875 28.0934 7.23033 27.6254 6.888C27.1618 6.54567 26.5833 6.3745 25.8899 6.3745C25.1576 6.37017 24.5488 6.53483 24.0634 6.8685C23.5781 7.19783 23.2119 7.6615 22.9649 8.2595C22.7223 8.85317 22.5988 9.54 22.5944 10.32C22.5901 11.1 22.7093 11.7868 22.9519 12.3805C23.1989 12.9698 23.5673 13.4335 24.0569 13.7715C24.5466 14.1052 25.1576 14.2742 25.8899 14.2785C26.5616 14.2785 27.1163 14.1485 27.5539 13.8885C27.9916 13.6285 28.3231 13.2558 28.5484 12.7705C28.7781 12.2852 28.9081 11.711 28.9384 11.048H26.7804V10.229H29.9394C29.9524 10.3287 29.9589 10.4348 29.9589 10.5475C29.9633 10.6558 29.9654 10.7338 29.9654 10.7815C29.9654 11.6265 29.8138 12.3827 29.5104 13.05C29.2071 13.713 28.7499 14.2373 28.1389 14.623C27.5323 15.0043 26.7696 15.195 25.8509 15.195Z" fill="#AAB2BD"/>
</svg>
