<svg width="20" height="20" viewBox="0 0 20 20" fill="none" xmlns="http://www.w3.org/2000/svg">
<path fill-rule="evenodd" clip-rule="evenodd" d="M15.8333 14.1668H15C14.54 14.1668 14.1667 13.7935 14.1667 13.3335V9.16683C14.1667 8.70683 14.54 8.3335 15 8.3335H15.8333C16.7542 8.3335 17.5 9.07933 17.5 10.0002V12.5002C17.5 13.421 16.7542 14.1668 15.8333 14.1668Z" stroke="#979999" stroke-width="1.5" stroke-linecap="round" stroke-linejoin="round"/>
<path fill-rule="evenodd" clip-rule="evenodd" d="M5 14.1668H4.16667C3.24583 14.1668 2.5 13.421 2.5 12.5002V10.0002C2.5 9.07933 3.24583 8.3335 4.16667 8.3335H5C5.46 8.3335 5.83333 8.70683 5.83333 9.16683V13.3335C5.83333 13.7935 5.46 14.1668 5 14.1668Z" stroke="#979999" stroke-width="1.5" stroke-linecap="round" stroke-linejoin="round"/>
<path d="M15.4167 8.33333V7.91667C15.4167 4.925 12.9917 2.5 10 2.5V2.5C7.00834 2.5 4.58334 4.925 4.58334 7.91667V8.33333" stroke="#979999" stroke-width="1.5" stroke-linecap="round" stroke-linejoin="round"/>
<path fill-rule="evenodd" clip-rule="evenodd" d="M10.5208 17.7083H9.47917C8.90417 17.7083 8.4375 17.2417 8.4375 16.6667V16.6667C8.4375 16.0917 8.90417 15.625 9.47917 15.625H10.5208C11.0958 15.625 11.5625 16.0917 11.5625 16.6667V16.6667C11.5625 17.2417 11.0958 17.7083 10.5208 17.7083Z" stroke="#979999" stroke-width="1.5" stroke-linecap="round" stroke-linejoin="round"/>
<path d="M11.5625 16.6665H13.3333C14.2542 16.6665 15 15.9207 15 14.9998V14.1665" stroke="#979999" stroke-width="1.5" stroke-linecap="round" stroke-linejoin="round"/>
</svg>
