<svg width="21" height="20" viewBox="0 0 21 20" fill="none" xmlns="http://www.w3.org/2000/svg">
<path fill-rule="evenodd" clip-rule="evenodd" d="M16.3891 14.1668H15.5557C15.0957 14.1668 14.7224 13.7935 14.7224 13.3335V9.16683C14.7224 8.70683 15.0957 8.3335 15.5557 8.3335H16.3891C17.3099 8.3335 18.0557 9.07933 18.0557 10.0002V12.5002C18.0557 13.421 17.3099 14.1668 16.3891 14.1668Z" stroke="#2A2B2B" stroke-width="1.5" stroke-linecap="round" stroke-linejoin="round"/>
<path fill-rule="evenodd" clip-rule="evenodd" d="M5.55566 14.1668H4.72233C3.8015 14.1668 3.05566 13.421 3.05566 12.5002V10.0002C3.05566 9.07933 3.8015 8.3335 4.72233 8.3335H5.55566C6.01566 8.3335 6.389 8.70683 6.389 9.16683V13.3335C6.389 13.7935 6.01566 14.1668 5.55566 14.1668Z" stroke="#2A2B2B" stroke-width="1.5" stroke-linecap="round" stroke-linejoin="round"/>
<path d="M15.9722 8.33333V7.91667C15.9722 4.925 13.5472 2.5 10.5556 2.5V2.5C7.56392 2.5 5.13892 4.925 5.13892 7.91667V8.33333" stroke="#2A2B2B" stroke-width="1.5" stroke-linecap="round" stroke-linejoin="round"/>
<path fill-rule="evenodd" clip-rule="evenodd" d="M11.0765 17.7083H10.0348C9.45983 17.7083 8.99316 17.2417 8.99316 16.6667V16.6667C8.99316 16.0917 9.45983 15.625 10.0348 15.625H11.0765C11.6515 15.625 12.1182 16.0917 12.1182 16.6667V16.6667C12.1182 17.2417 11.6515 17.7083 11.0765 17.7083Z" stroke="#2A2B2B" stroke-width="1.5" stroke-linecap="round" stroke-linejoin="round"/>
<path d="M12.1182 16.6665H13.889C14.8098 16.6665 15.5557 15.9207 15.5557 14.9998V14.1665" stroke="#2A2B2B" stroke-width="1.5" stroke-linecap="round" stroke-linejoin="round"/>
</svg>
