<svg width="24" height="24" viewBox="0 0 24 24" fill="none" xmlns="http://www.w3.org/2000/svg">
<rect width="24" height="24" rx="12" fill="#15B08F"/>
<circle cx="12" cy="12" r="5.25219" stroke="white" stroke-width="1.25" stroke-linecap="round" stroke-linejoin="round"/>
<path d="M12.0001 9.66571C12.7162 9.66571 13.2968 10.2463 13.2968 10.9624C13.2968 11.6786 12.7162 12.2591 12.0001 12.2591C11.2839 12.2591 10.7034 11.6786 10.7034 10.9624C10.7034 10.2463 11.2839 9.66571 12.0001 9.66571" stroke="white" stroke-width="1.25" stroke-linecap="round" stroke-linejoin="round"/>
<path fill-rule="evenodd" clip-rule="evenodd" d="M14.3344 14.6104C13.0452 15.8995 10.955 15.8995 9.66577 14.6104C9.73399 14.4398 9.83923 14.2865 9.9739 14.1616C10.2016 13.9502 10.5007 13.8327 10.8113 13.8325H13.1894C13.4999 13.8326 13.7988 13.9502 14.0263 14.1616C14.1612 14.2863 14.2665 14.4396 14.3344 14.6104Z" stroke="white" stroke-width="1.25" stroke-linecap="round" stroke-linejoin="round"/>
</svg>
