<svg width="20" height="20" viewBox="0 0 20 20" fill="none" xmlns="http://www.w3.org/2000/svg">
<path fill-rule="evenodd" clip-rule="evenodd" d="M15.4167 12.5002H10C8.6193 12.5002 7.50001 11.3809 7.50001 10.0002V10.0002C7.50001 8.61945 8.6193 7.50016 10 7.50016H15.4167C16.107 7.50016 16.6667 6.94052 16.6667 6.25016V4.5835C16.6667 3.89314 16.107 3.3335 15.4167 3.3335H10C6.31811 3.3335 3.33334 6.31826 3.33334 10.0002V10.0002C3.33334 13.6821 6.31811 16.6668 10 16.6668H15.4167C16.107 16.6668 16.6667 16.1072 16.6667 15.4168V13.7502C16.6667 13.0598 16.107 12.5002 15.4167 12.5002Z" stroke="#979999" stroke-width="1.5" stroke-linecap="round" stroke-linejoin="round"/>
<path d="M12.5 3.33252V7.49919" stroke="#979999" stroke-width="1.5" stroke-linecap="round" stroke-linejoin="round"/>
<path d="M12.5 12.499V16.6657" stroke="#979999" stroke-width="1.5" stroke-linecap="round" stroke-linejoin="round"/>
</svg>
