<svg width="21" height="20" viewBox="0 0 21 20" fill="none" xmlns="http://www.w3.org/2000/svg">
<path fill-rule="evenodd" clip-rule="evenodd" d="M15.9722 12.5002H10.5556C9.17487 12.5002 8.05558 11.3809 8.05558 10.0002V10.0002C8.05558 8.61945 9.17487 7.50016 10.5556 7.50016H15.9722C16.6626 7.50016 17.2222 6.94052 17.2222 6.25016V4.5835C17.2222 3.89314 16.6626 3.3335 15.9722 3.3335H10.5556C6.87368 3.3335 3.88892 6.31826 3.88892 10.0002V10.0002C3.88892 13.6821 6.87368 16.6668 10.5556 16.6668H15.9722C16.6626 16.6668 17.2222 16.1072 17.2222 15.4168V13.7502C17.2222 13.0598 16.6626 12.5002 15.9722 12.5002Z" stroke="#2A2B2B" stroke-width="1.5" stroke-linecap="round" stroke-linejoin="round"/>
<path d="M13.0556 3.33252V7.49919" stroke="#2A2B2B" stroke-width="1.5" stroke-linecap="round" stroke-linejoin="round"/>
<path d="M13.0556 12.499V16.6657" stroke="#2A2B2B" stroke-width="1.5" stroke-linecap="round" stroke-linejoin="round"/>
</svg>
