<svg width="24" height="24" viewBox="0 0 24 24" fill="none" xmlns="http://www.w3.org/2000/svg">
<rect width="24" height="24" rx="12" fill="#15B08F"/>
<path d="M11.2207 17.2511L11.9986 16.4732L11.2207 15.6953" stroke="white" stroke-width="1.25" stroke-linecap="round" stroke-linejoin="round"/>
<path d="M17.1872 13.1699C17.5543 13.3931 17.7945 13.7764 17.8356 14.204C17.8356 15.1588 16.3183 15.974 14.1719 16.3096" stroke="white" stroke-width="1.25" stroke-linecap="round" stroke-linejoin="round"/>
<path d="M6.81242 13.1699C6.44537 13.3931 6.20509 13.7764 6.16406 14.204C6.16406 15.4575 8.77673 16.4735 11.9998 16.4735" stroke="white" stroke-width="1.25" stroke-linecap="round" stroke-linejoin="round"/>
<path fill-rule="evenodd" clip-rule="evenodd" d="M13.9936 13.1886H10.0031C9.81613 13.188 9.6647 13.0366 9.66406 12.8496V12.5741C9.6663 11.7911 10.3003 11.1569 11.0833 11.1543H12.9134C13.6964 11.1569 14.3304 11.7911 14.3327 12.5741V12.8496C14.332 13.0366 14.1806 13.188 13.9936 13.1886V13.1886Z" stroke="white" stroke-width="1.25" stroke-linecap="round" stroke-linejoin="round"/>
<path fill-rule="evenodd" clip-rule="evenodd" d="M11.9994 9.45856C11.2509 9.45888 10.6437 8.85276 10.6426 8.10427C10.6415 7.35578 11.247 6.74793 11.9955 6.7461C12.744 6.74428 13.3525 7.34917 13.355 8.09766C13.3563 8.45806 13.214 8.80414 12.9597 9.05947C12.7053 9.31481 12.3598 9.45841 11.9994 9.45856V9.45856Z" stroke="white" stroke-width="1.25" stroke-linecap="round" stroke-linejoin="round"/>
</svg>
