<svg width="24" height="24" viewBox="0 0 24 24" fill="none" xmlns="http://www.w3.org/2000/svg">
<rect width="24" height="24" rx="12" fill="#15B08F"/>
<path d="M14.334 17.2507H15.5007C16.4671 17.2507 17.2507 16.4671 17.2507 15.5007V14.334" stroke="white" stroke-width="1.25" stroke-linecap="round" stroke-linejoin="round"/>
<path d="M14.334 6.75H15.5007C16.4671 6.75 17.2507 7.5335 17.2507 8.5V9.66667" stroke="white" stroke-width="1.25" stroke-linecap="round" stroke-linejoin="round"/>
<path d="M6.75 14.334V15.5007C6.75 16.4671 7.5335 17.2507 8.5 17.2507H9.66667" stroke="white" stroke-width="1.25" stroke-linecap="round" stroke-linejoin="round"/>
<path d="M6.75 9.66667V8.5C6.75 7.5335 7.5335 6.75 8.5 6.75H9.66667" stroke="white" stroke-width="1.25" stroke-linecap="round" stroke-linejoin="round"/>
<path d="M14.9173 14.6243C14.9173 13.8189 14.2644 13.166 13.459 13.166H10.5423C9.7369 13.166 9.08398 13.8189 9.08398 14.6243" stroke="white" stroke-width="1.25" stroke-linecap="round" stroke-linejoin="round"/>
<circle cx="11.9993" cy="10.2493" r="1.45833" stroke="white" stroke-width="1.25" stroke-linecap="round" stroke-linejoin="round"/>
</svg>
