<svg width="24" height="24" viewBox="0 0 24 24" fill="none" xmlns="http://www.w3.org/2000/svg">
<rect width="24" height="24" rx="12" fill="#15B08F"/>
<path d="M9.67285 14.9167H14.3279" stroke="white" stroke-width="1.25" stroke-linecap="round" stroke-linejoin="round"/>
<path d="M9.67285 12.5827H14.3279" stroke="white" stroke-width="1.25" stroke-linecap="round" stroke-linejoin="round"/>
<path fill-rule="evenodd" clip-rule="evenodd" d="M16.0833 10.25H12.3121C12.1172 10.25 11.9347 10.1526 11.8267 9.99042L11.0066 8.76017C10.8981 8.59742 10.7161 8.5 10.5212 8.5H7.91667C7.27208 8.5 6.75 9.02208 6.75 9.66667V16.0833C6.75 16.7279 7.27208 17.25 7.91667 17.25H16.0833C16.7279 17.25 17.25 16.7279 17.25 16.0833V11.4167C17.25 10.7721 16.7279 10.25 16.0833 10.25Z" stroke="white" stroke-width="1.25" stroke-linecap="round" stroke-linejoin="round"/>
<path d="M7.91699 8.5V7.91667C7.91699 7.27208 8.43908 6.75 9.08366 6.75H14.917C15.5616 6.75 16.0837 7.27208 16.0837 7.91667V10.25" stroke="white" stroke-width="1.25" stroke-linecap="round" stroke-linejoin="round"/>
</svg>
