<svg width="24" height="24" viewBox="0 0 24 24" fill="none" xmlns="http://www.w3.org/2000/svg">
<rect width="24" height="24" rx="12" fill="#15B08F"/>
<path d="M17.2497 17.2507L17.5868 16.5763C17.7488 16.2524 17.8331 15.8953 17.833 15.5331V11.709C17.833 11.2257 17.4413 10.834 16.958 10.834V10.834C16.4748 10.834 16.083 11.2257 16.083 11.709V14.0423" stroke="white" stroke-width="1.25" stroke-linecap="round" stroke-linejoin="round"/>
<path fill-rule="evenodd" clip-rule="evenodd" d="M9.66699 9.375C9.66699 10.4865 11.0522 11.3121 11.6892 11.633C11.8845 11.7334 12.1162 11.7334 12.3114 11.633C12.9484 11.3121 14.3337 10.4883 14.3337 9.375V7.79597C14.3295 7.64237 14.209 7.51721 14.0557 7.50706C13.4358 7.45721 12.8423 7.23433 12.3429 6.8638C12.1397 6.71207 11.861 6.71207 11.6578 6.8638C11.1583 7.23434 10.5649 7.45721 9.94494 7.50706C9.79076 7.51534 9.66931 7.64157 9.66699 7.79596L9.66699 9.375Z" stroke="white" stroke-width="1.25" stroke-linecap="round" stroke-linejoin="round"/>
<path d="M13.167 17.2493V15.5499C13.167 15.2974 13.2489 15.0518 13.4003 14.8499L14.3791 13.5448C14.5438 13.3252 14.7957 13.1879 15.0696 13.1684C15.3434 13.1489 15.6122 13.2493 15.8063 13.4434V13.4434C16.1395 13.7766 16.177 14.3041 15.8943 14.6811L15.2806 15.4993" stroke="white" stroke-width="1.25" stroke-linecap="round" stroke-linejoin="round"/>
<path d="M6.75033 17.2507L6.41316 16.5763C6.25122 16.2524 6.16694 15.8953 6.16699 15.5331V11.709C6.16699 11.2257 6.55874 10.834 7.04199 10.834V10.834C7.52524 10.834 7.91699 11.2257 7.91699 11.709V14.0423" stroke="white" stroke-width="1.25" stroke-linecap="round" stroke-linejoin="round"/>
<path d="M10.8337 17.2493V15.5499C10.8337 15.2974 10.7518 15.0518 10.6003 14.8499L9.62152 13.5448C9.45682 13.3252 9.20491 13.1879 8.93109 13.1684C8.65726 13.1489 8.38847 13.2493 8.19436 13.4434V13.4434C7.86113 13.7766 7.82364 14.3041 8.1064 14.6811L8.72003 15.4993" stroke="white" stroke-width="1.25" stroke-linecap="round" stroke-linejoin="round"/>
</svg>
