<svg width="24" height="24" viewBox="0 0 24 24" fill="none" xmlns="http://www.w3.org/2000/svg">
<rect width="24" height="24" rx="12" fill="#15B08F"/>
<path d="M7.33105 16.6691V16.6691C7.33105 15.2187 8.5068 14.043 9.95715 14.043H11.4645" stroke="white" stroke-width="1.25" stroke-linecap="round" stroke-linejoin="round"/>
<path d="M15.2088 13.75V15.5007" stroke="white" stroke-width="1.25" stroke-linecap="round" stroke-linejoin="round"/>
<path d="M17.252 15.9543C17.252 15.7036 17.0488 15.5003 16.798 15.5003H13.621C13.3703 15.5003 13.167 15.7036 13.167 15.9543" stroke="white" stroke-width="1.25" stroke-linecap="round" stroke-linejoin="round"/>
<path fill-rule="evenodd" clip-rule="evenodd" d="M13.7506 17.835H16.6685C16.9908 17.835 17.252 17.5738 17.252 17.2515V15.171C17.252 14.9345 17.2041 14.7005 17.1114 14.483L16.9492 14.1042C16.8574 13.8895 16.6464 13.7501 16.4128 13.75H14.0062C13.7724 13.7499 13.5612 13.8893 13.4693 14.1042L13.3076 14.4824C13.2149 14.6999 13.167 14.9339 13.167 15.1704V17.2515C13.167 17.5738 13.4283 17.835 13.7506 17.835Z" stroke="white" stroke-width="1.25" stroke-linecap="round" stroke-linejoin="round"/>
<path d="M13.7535 8.05663C14.4629 8.76594 14.6751 9.83274 14.2912 10.7596C13.9074 11.6864 13.003 12.2907 11.9998 12.2907C10.9966 12.2907 10.0922 11.6864 9.70837 10.7596C9.3245 9.83274 9.53675 8.76594 10.2462 8.05663C10.7112 7.59144 11.342 7.33008 11.9998 7.33008C12.6576 7.33008 13.2884 7.59144 13.7535 8.05663" stroke="white" stroke-width="1.25" stroke-linecap="round" stroke-linejoin="round"/>
</svg>
