<svg width="24" height="24" viewBox="0 0 24 24" fill="none" xmlns="http://www.w3.org/2000/svg">
<rect width="24" height="24" rx="12" fill="#15B08F"/>
<path d="M15.3555 7.91288H16.8144" stroke="white" stroke-width="1.25" stroke-linecap="round" stroke-linejoin="round"/>
<path d="M16.0857 8.64253V7.18359" stroke="white" stroke-width="1.25" stroke-linecap="round" stroke-linejoin="round"/>
<path d="M16.0853 10.2487C14.7962 10.2487 13.751 9.2035 13.751 7.91438C13.751 6.62526 14.7962 5.58008 16.0853 5.58008C17.3744 5.58008 18.4196 6.62526 18.4196 7.91438C18.4196 9.2035 17.3744 10.2487 16.0853 10.2487" stroke="white" stroke-width="1.25" stroke-linecap="round" stroke-linejoin="round"/>
<path d="M11.7078 10.2637C12.4239 10.2637 13.0045 10.8443 13.0045 11.5604C13.0045 12.2764 12.4239 12.8571 11.7078 12.8571C10.9918 12.8571 10.4111 12.2764 10.4111 11.5604C10.4111 10.8443 10.9918 10.2637 11.7078 10.2637" stroke="white" stroke-width="1.25" stroke-linecap="round" stroke-linejoin="round"/>
<path d="M14.0426 14.9322C13.9749 14.7612 13.8693 14.6083 13.7345 14.4834V14.4834C13.5063 14.2722 13.2087 14.1543 12.8977 14.1543C12.3789 14.1543 11.0384 14.1543 10.5196 14.1543C10.2085 14.1543 9.91033 14.2722 9.68215 14.4834V14.4834C9.54735 14.6083 9.4423 14.7618 9.37402 14.9322" stroke="white" stroke-width="1.25" stroke-linecap="round" stroke-linejoin="round"/>
<path d="M13.7545 7.77651C13.13 7.4929 12.4391 7.33008 11.7084 7.33008C8.96914 7.33008 6.74805 9.55117 6.74805 12.2905C6.74805 15.0298 8.96914 17.2509 11.7084 17.2509C14.4478 17.2509 16.6688 15.0298 16.6688 12.2905C16.6688 11.5598 16.506 10.8689 16.2224 10.2445" stroke="white" stroke-width="1.25" stroke-linecap="round" stroke-linejoin="round"/>
</svg>
