<svg width="24" height="24" viewBox="0 0 24 24" fill="none" xmlns="http://www.w3.org/2000/svg">
<rect width="24" height="24" rx="12" fill="#15B08F"/>
<path d="M11.9996 14.334H10.5366C10.0956 14.334 9.67097 14.5008 9.34722 14.8001L9.30989 14.8351C9.10455 15.0252 8.94472 15.2586 8.84089 15.5187L8.63672 16.0315" stroke="white" stroke-width="1.25" stroke-linecap="round" stroke-linejoin="round"/>
<path d="M12.6917 12.691C13.4763 12.4081 14.0416 11.6696 14.0416 10.7864C14.0416 9.65881 13.1275 8.74414 11.9993 8.74414C11.1161 8.74414 10.3776 9.30939 10.0947 10.0946" stroke="white" stroke-width="1.25" stroke-linecap="round" stroke-linejoin="round"/>
<path d="M7.31044 9.64453C6.32169 11.6127 6.64486 14.0714 8.28752 15.7141C9.93077 17.3574 12.3901 17.6799 14.3583 16.6906" stroke="white" stroke-width="1.25" stroke-linecap="round" stroke-linejoin="round"/>
<path d="M8.28613 8.2863V8.2863C10.3371 6.2353 13.6621 6.2353 15.7125 8.2863C17.763 10.3367 17.763 13.6611 15.7131 15.7121" stroke="white" stroke-width="1.25" stroke-linecap="round" stroke-linejoin="round"/>
<path d="M16.6663 16.6673L7.33301 7.33398" stroke="white" stroke-width="1.25" stroke-linecap="round" stroke-linejoin="round"/>
</svg>
