<svg width="24" height="24" viewBox="0 0 24 24" fill="none" xmlns="http://www.w3.org/2000/svg">
<rect width="24" height="24" rx="12" fill="#15B08F"/>
<circle cx="11.9993" cy="12.0002" r="5.25219" stroke="white" stroke-width="1.25" stroke-linecap="round" stroke-linejoin="round"/>
<path d="M11.9998 9.66602C12.716 9.66602 13.2965 10.2466 13.2965 10.9627C13.2965 11.6789 12.716 12.2594 11.9998 12.2594C11.2837 12.2594 10.7031 11.6789 10.7031 10.9627C10.7031 10.2466 11.2837 9.66602 11.9998 9.66602" stroke="white" stroke-width="1.25" stroke-linecap="round" stroke-linejoin="round"/>
<path fill-rule="evenodd" clip-rule="evenodd" d="M14.3336 14.6099C13.0444 15.8991 10.9543 15.8991 9.66504 14.6099C9.73326 14.4394 9.8385 14.2861 9.97317 14.1612C10.2008 13.9498 10.4999 13.8322 10.8106 13.832H13.1887C13.4992 13.8322 13.7981 13.9498 14.0255 14.1612C14.1605 14.2858 14.2658 14.4392 14.3336 14.6099Z" stroke="white" stroke-width="1.25" stroke-linecap="round" stroke-linejoin="round"/>
</svg>
