<svg width="24" height="24" viewBox="0 0 24 24" fill="none" xmlns="http://www.w3.org/2000/svg">
<rect width="24" height="24" rx="12" fill="#15B08F"/>
<path fill-rule="evenodd" clip-rule="evenodd" d="M12.2392 11.8472H9.08398V10.4665C9.08398 9.7029 9.7029 9.08398 10.4665 9.08398H12.2392C13.0022 9.08398 13.6206 9.70232 13.6206 10.4653V10.4653C13.6212 11.2283 13.0022 11.8472 12.2392 11.8472Z" stroke="white" stroke-width="1.25" stroke-linecap="round" stroke-linejoin="round"/>
<path fill-rule="evenodd" clip-rule="evenodd" d="M9.08398 11.8457H13.536C14.299 11.8457 14.9173 12.464 14.9173 13.227V13.5339C14.9173 14.2975 14.299 14.9158 13.536 14.9158H10.4665C9.7029 14.9158 9.08398 14.2969 9.08398 13.5333V11.8457V11.8457Z" stroke="white" stroke-width="1.25" stroke-linecap="round" stroke-linejoin="round"/>
<path fill-rule="evenodd" clip-rule="evenodd" d="M9.375 6.75H14.6273C16.0757 6.75 17.25 7.92425 17.25 9.37267V14.6279C17.25 16.0757 16.0757 17.25 14.6273 17.25H9.37267C7.92425 17.25 6.75 16.0757 6.75 14.6273V9.375C6.75 7.92542 7.92542 6.75 9.375 6.75V6.75Z" stroke="white" stroke-width="1.25" stroke-linecap="round" stroke-linejoin="round"/>
</svg>
