<svg width="24" height="24" viewBox="0 0 24 24" fill="none" xmlns="http://www.w3.org/2000/svg">
<rect width="24" height="24" rx="12" fill="#15B08F"/>
<path d="M6.75 14.9167V7.91667C6.75 7.27233 7.27233 6.75 7.91667 6.75H16.0833C16.7277 6.75 17.25 7.27233 17.25 7.91667V14.9167" stroke="white" stroke-width="1.25" stroke-linecap="round" stroke-linejoin="round"/>
<path fill-rule="evenodd" clip-rule="evenodd" d="M6.45833 14.916H17.5417C17.8638 14.916 18.125 15.1772 18.125 15.4993V15.4993C18.125 16.4658 17.3415 17.2493 16.375 17.2493H7.625C6.6585 17.2493 5.875 16.4658 5.875 15.4993V15.4993C5.875 15.1772 6.13617 14.916 6.45833 14.916Z" stroke="white" stroke-width="1.25" stroke-linecap="round" stroke-linejoin="round"/>
<path fill-rule="evenodd" clip-rule="evenodd" d="M9.66602 9.42918V12.3406C9.66807 12.4419 9.72235 12.535 9.80953 12.5866C9.89671 12.6383 10.0044 12.6412 10.0942 12.5943C10.7293 12.3068 11.4738 12.4162 11.9993 12.8743C12.5249 12.4162 13.2693 12.3068 13.9045 12.5943C13.9943 12.6412 14.102 12.6383 14.1892 12.5866C14.2763 12.535 14.3306 12.4419 14.3327 12.3406V9.42915C14.3292 9.34789 14.2966 9.2706 14.2408 9.21142C13.5969 8.61746 12.5935 8.65774 11.9993 9.3014C11.4052 8.65776 10.4018 8.61746 9.75795 9.21137C9.70212 9.27056 9.66949 9.34789 9.66602 9.42918Z" stroke="white" stroke-width="1.25" stroke-linecap="round" stroke-linejoin="round"/>
<path d="M12.0007 12.8756V9.30273" stroke="white" stroke-width="1.25" stroke-linecap="round" stroke-linejoin="round"/>
</svg>
