<svg width="24" height="24" viewBox="0 0 24 24" fill="none" xmlns="http://www.w3.org/2000/svg">
<rect width="24" height="24" rx="12" fill="#313634"/>
<circle cx="12" cy="12" r="5.25219" stroke="#D2D6D5" stroke-width="1.25" stroke-linecap="round" stroke-linejoin="round"/>
<path d="M12 9.6657C12.7162 9.6657 13.2967 10.2463 13.2967 10.9624C13.2967 11.6786 12.7162 12.2591 12 12.2591C11.2839 12.2591 10.7033 11.6786 10.7033 10.9624C10.7033 10.2463 11.2839 9.6657 12 9.6657" stroke="#D2D6D5" stroke-width="1.25" stroke-linecap="round" stroke-linejoin="round"/>
<path fill-rule="evenodd" clip-rule="evenodd" d="M14.3343 14.6103C13.0451 15.8995 10.9549 15.8995 9.66571 14.6103C9.73393 14.4398 9.83917 14.2865 9.97384 14.1616C10.2015 13.9502 10.5006 13.8326 10.8113 13.8324H13.1893C13.4998 13.8326 13.7988 13.9502 14.0262 14.1616C14.1612 14.2862 14.2665 14.4396 14.3343 14.6103Z" stroke="#D2D6D5" stroke-width="1.25" stroke-linecap="round" stroke-linejoin="round"/>
</svg>
