<svg width="25" height="24" viewBox="0 0 25 24" fill="none" xmlns="http://www.w3.org/2000/svg">
<rect x="0.75" width="24" height="24" rx="12" fill="#313634"/>
<path d="M17.4186 10.8328V7.91496C17.4186 7.27036 16.896 6.74781 16.2514 6.74781H8.66496C8.02035 6.74781 7.4978 7.27036 7.4978 7.91496V16.085C7.4978 16.7296 8.02035 17.2522 8.66496 17.2522H11.5828" stroke="#D2D6D5" stroke-width="1.25" stroke-linecap="round" stroke-linejoin="round"/>
<path d="M11.1451 13.7507H11.5828" stroke="#D2D6D5" stroke-width="1.25" stroke-linecap="round" stroke-linejoin="round"/>
<path d="M11.1451 11.4164H13.9171" stroke="#D2D6D5" stroke-width="1.25" stroke-linecap="round" stroke-linejoin="round"/>
<path d="M11.1451 9.15506H15.0843" stroke="#D2D6D5" stroke-width="1.25" stroke-linecap="round" stroke-linejoin="round"/>
<path d="M9.32145 13.8237C9.36174 13.8237 9.3944 13.791 9.3944 13.7507C9.3944 13.7104 9.36174 13.6778 9.32145 13.6778C9.28116 13.6778 9.2485 13.7104 9.2485 13.7507C9.2485 13.791 9.28116 13.8237 9.32145 13.8237" stroke="#D2D6D5" stroke-width="1.25" stroke-linecap="round" stroke-linejoin="round"/>
<path d="M9.32145 11.4894C9.36174 11.4894 9.3944 11.4567 9.3944 11.4164C9.3944 11.3761 9.36174 11.3435 9.32145 11.3435C9.28116 11.3435 9.2485 11.3761 9.2485 11.4164C9.2485 11.4567 9.28116 11.4894 9.32145 11.4894" stroke="#D2D6D5" stroke-width="1.25" stroke-linecap="round" stroke-linejoin="round"/>
<path d="M9.32145 9.22801C9.36174 9.22801 9.3944 9.19535 9.3944 9.15506C9.3944 9.11478 9.36174 9.08212 9.32145 9.08212C9.28116 9.08212 9.2485 9.11478 9.2485 9.15506C9.2485 9.19535 9.28116 9.22801 9.32145 9.22801" stroke="#D2D6D5" stroke-width="1.25" stroke-linecap="round" stroke-linejoin="round"/>
<path d="M15.9596 12.5836C17.4099 12.5836 18.5857 13.7593 18.5857 15.2097C18.5857 16.66 17.4099 17.8358 15.9596 17.8358C14.5092 17.8358 13.3335 16.66 13.3335 15.2097C13.3335 13.7593 14.5092 12.5836 15.9596 12.5836" stroke="#D2D6D5" stroke-width="1.25" stroke-linecap="round" stroke-linejoin="round"/>
<path d="M16.8677 14.7562L15.7333 15.8907L15.0516 15.2097" stroke="#D2D6D5" stroke-width="1.25" stroke-linecap="round" stroke-linejoin="round"/>
</svg>
