<svg width="25" height="24" viewBox="0 0 25 24" fill="none" xmlns="http://www.w3.org/2000/svg">
<rect x="0.25" width="24" height="24" rx="12" fill="#313634"/>
<path d="M7.5813 16.6686V16.6686C7.5813 15.2183 8.75704 14.0425 10.2074 14.0425H11.7148" stroke="#D2D6D5" stroke-width="1.25" stroke-linecap="round" stroke-linejoin="round"/>
<path d="M15.4596 13.7507V15.5015" stroke="#D2D6D5" stroke-width="1.25" stroke-linecap="round" stroke-linejoin="round"/>
<path d="M17.5022 15.9555C17.5022 15.7047 17.2989 15.5015 17.0481 15.5015H13.8711C13.6204 15.5015 13.4171 15.7047 13.4171 15.9555" stroke="#D2D6D5" stroke-width="1.25" stroke-linecap="round" stroke-linejoin="round"/>
<path fill-rule="evenodd" clip-rule="evenodd" d="M14.0007 17.8358H16.9186C17.2409 17.8358 17.5022 17.5745 17.5022 17.2522V15.1717C17.5021 14.9353 17.4543 14.7012 17.3615 14.4837L17.1993 14.105C17.1075 13.8902 16.8965 13.7509 16.663 13.7507H14.2563C14.0225 13.7506 13.8113 13.89 13.7194 14.105L13.5578 14.4831C13.465 14.7006 13.4172 14.9347 13.4171 15.1712V17.2522C13.4171 17.5745 13.6784 17.8358 14.0007 17.8358Z" stroke="#D2D6D5" stroke-width="1.25" stroke-linecap="round" stroke-linejoin="round"/>
<path d="M14.0036 8.05794C14.713 8.76725 14.9252 9.83405 14.5414 10.7609C14.1575 11.6877 13.2531 12.292 12.2499 12.292C11.2467 12.292 10.3424 11.6877 9.95849 10.7609C9.57462 9.83405 9.78688 8.76725 10.4963 8.05794C10.9613 7.59274 11.5921 7.33138 12.2499 7.33138C12.9077 7.33138 13.5385 7.59274 14.0036 8.05794" stroke="#D2D6D5" stroke-width="1.25" stroke-linecap="round" stroke-linejoin="round"/>
</svg>
