<svg width="16" height="16" viewBox="0 0 16 16" fill="none" xmlns="http://www.w3.org/2000/svg">
<path d="M4.3999 6V3.33333C4.3999 2.59695 4.99686 2 5.73324 2H10.2666C11.0029 2 11.5999 2.59695 11.5999 3.33333V6" stroke="#4E878F" stroke-width="1.5" stroke-linecap="round" stroke-linejoin="round"/>
<rect x="4.3999" y="9.19995" width="7.2" height="4.8" rx="1" stroke="#4E878F" stroke-width="1.5" stroke-linecap="round" stroke-linejoin="round"/>
<path d="M4.4 12H3.76393C3.09145 12 2.47668 11.6201 2.17593 11.0186V11.0186C2.06023 10.7872 1.99999 10.532 2 10.2732V7.33333C2 6.59695 2.59695 6 3.33333 6H12.6667C13.403 6 14 6.59695 14 7.33333V10.1945C14 10.505 13.9277 10.8112 13.7889 11.089V11.089C13.5097 11.6473 12.939 12 12.3148 12H11.6" stroke="#4E878F" stroke-width="1.5" stroke-linecap="round" stroke-linejoin="round"/>
</svg>
