<svg width="21" height="20" viewBox="0 0 21 20" fill="none" xmlns="http://www.w3.org/2000/svg">
<path d="M5.05725 15.636C3.83808 14.5668 2.96558 13.1127 2.63892 11.4585" stroke="#2A2B2B" stroke-width="1.5" stroke-linecap="round" stroke-linejoin="round"/>
<path d="M12.4071 17.0959C11.6496 17.3543 10.8396 17.5001 9.99463 17.5001C9.14963 17.5001 8.33963 17.3543 7.5813 17.0959" stroke="#2A2B2B" stroke-width="1.5" stroke-linecap="round" stroke-linejoin="round"/>
<path d="M12.4071 2.90439C11.6496 2.64606 10.8396 2.50023 9.99463 2.50023C9.14963 2.50023 8.33963 2.64606 7.5813 2.90439" stroke="#2A2B2B" stroke-width="1.5" stroke-linecap="round" stroke-linejoin="round"/>
<path d="M14.9324 15.636C16.1515 14.5668 17.024 13.1127 17.3507 11.4585" stroke="#2A2B2B" stroke-width="1.5" stroke-linecap="round" stroke-linejoin="round"/>
<path d="M2.63892 8.54176C2.96475 6.88759 3.83725 5.43426 5.05725 4.36426" stroke="#2A2B2B" stroke-width="1.5" stroke-linecap="round" stroke-linejoin="round"/>
<path fill-rule="evenodd" clip-rule="evenodd" d="M13.9255 8.5421H17.6496C18.2813 8.5421 18.6771 7.85793 18.3605 7.31043L16.498 4.08543C16.1821 3.53793 15.3921 3.53793 15.0755 4.08543L13.213 7.31043C12.8988 7.85793 13.2938 8.5421 13.9255 8.5421V8.5421Z" stroke="#2A2B2B" stroke-width="1.5" stroke-linecap="round" stroke-linejoin="round"/>
</svg>
