<svg width="20" height="20" viewBox="0 0 20 20" fill="none" xmlns="http://www.w3.org/2000/svg">
<path d="M4.50168 15.636C3.28251 14.5668 2.41001 13.1127 2.08334 11.4585" stroke="#979999" stroke-width="1.5" stroke-linecap="round" stroke-linejoin="round"/>
<path d="M11.8517 17.0959C11.0942 17.3543 10.2842 17.5001 9.43918 17.5001C8.59418 17.5001 7.78418 17.3543 7.02585 17.0959" stroke="#979999" stroke-width="1.5" stroke-linecap="round" stroke-linejoin="round"/>
<path d="M11.8517 2.90439C11.0942 2.64606 10.2842 2.50023 9.43918 2.50023C8.59418 2.50023 7.78418 2.64606 7.02585 2.90439" stroke="#979999" stroke-width="1.5" stroke-linecap="round" stroke-linejoin="round"/>
<path d="M14.3767 15.636C15.5958 14.5668 16.4683 13.1127 16.795 11.4585" stroke="#979999" stroke-width="1.5" stroke-linecap="round" stroke-linejoin="round"/>
<path d="M2.08334 8.54176C2.40918 6.88759 3.28168 5.43426 4.50168 4.36426" stroke="#979999" stroke-width="1.5" stroke-linecap="round" stroke-linejoin="round"/>
<path fill-rule="evenodd" clip-rule="evenodd" d="M13.37 8.5421H17.0942C17.7259 8.5421 18.1217 7.85793 17.805 7.31043L15.9425 4.08543C15.6267 3.53793 14.8367 3.53793 14.52 4.08543L12.6575 7.31043C12.3434 7.85793 12.7384 8.5421 13.37 8.5421V8.5421Z" stroke="#979999" stroke-width="1.5" stroke-linecap="round" stroke-linejoin="round"/>
</svg>
