<svg width="25" height="24" viewBox="0 0 25 24" fill="none" xmlns="http://www.w3.org/2000/svg">
<rect x="0.75" width="24" height="24" rx="12" fill="#15B08F"/>
<path d="M17.4186 10.8328V7.91496C17.4186 7.27035 16.896 6.7478 16.2514 6.7478H8.66496C8.02035 6.7478 7.4978 7.27035 7.4978 7.91496V16.085C7.4978 16.7296 8.02035 17.2522 8.66496 17.2522H11.5828" stroke="white" stroke-width="1.25" stroke-linecap="round" stroke-linejoin="round"/>
<path d="M11.1452 13.7508H11.5829" stroke="white" stroke-width="1.25" stroke-linecap="round" stroke-linejoin="round"/>
<path d="M11.1453 11.4164H13.9173" stroke="white" stroke-width="1.25" stroke-linecap="round" stroke-linejoin="round"/>
<path d="M11.1453 9.15507H15.0844" stroke="white" stroke-width="1.25" stroke-linecap="round" stroke-linejoin="round"/>
<path d="M9.32157 13.8237C9.36186 13.8237 9.39452 13.7911 9.39452 13.7508C9.39452 13.7105 9.36186 13.6778 9.32157 13.6778C9.28129 13.6778 9.24863 13.7105 9.24863 13.7508C9.24863 13.7911 9.28129 13.8237 9.32157 13.8237" stroke="white" stroke-width="1.25" stroke-linecap="round" stroke-linejoin="round"/>
<path d="M9.32157 11.4894C9.36186 11.4894 9.39452 11.4567 9.39452 11.4164C9.39452 11.3761 9.36186 11.3435 9.32157 11.3435C9.28129 11.3435 9.24863 11.3761 9.24863 11.4164C9.24863 11.4567 9.28129 11.4894 9.32157 11.4894" stroke="white" stroke-width="1.25" stroke-linecap="round" stroke-linejoin="round"/>
<path d="M9.32157 9.22802C9.36186 9.22802 9.39452 9.19536 9.39452 9.15507C9.39452 9.11478 9.36186 9.08212 9.32157 9.08212C9.28129 9.08212 9.24863 9.11478 9.24863 9.15507C9.24863 9.19536 9.28129 9.22802 9.32157 9.22802" stroke="white" stroke-width="1.25" stroke-linecap="round" stroke-linejoin="round"/>
<path d="M15.9598 12.5836C17.4102 12.5836 18.5859 13.7594 18.5859 15.2097C18.5859 16.6601 17.4102 17.8358 15.9598 17.8358C14.5095 17.8358 13.3337 16.6601 13.3337 15.2097C13.3337 13.7594 14.5095 12.5836 15.9598 12.5836" stroke="white" stroke-width="1.25" stroke-linecap="round" stroke-linejoin="round"/>
<path d="M16.8678 14.7562L15.7334 15.8907L15.0518 15.2097" stroke="white" stroke-width="1.25" stroke-linecap="round" stroke-linejoin="round"/>
</svg>
