<svg width="21" height="20" viewBox="0 0 21 20" fill="none" xmlns="http://www.w3.org/2000/svg">
<path fill-rule="evenodd" clip-rule="evenodd" d="M9.67309 17.4126V17.4126C5.82534 16.6431 3.05566 13.2646 3.05566 9.34066V6.66667C3.05566 4.36548 4.92114 2.5 7.22233 2.5H13.889C16.1902 2.5 18.0557 4.36548 18.0557 6.66667V9.34063C18.0557 13.2645 15.2861 16.6429 11.4384 17.4126H11.4382C10.8556 17.5291 10.2557 17.5291 9.67309 17.4126V17.4126Z" stroke="#2A2B2B" stroke-width="1.5" stroke-linecap="round" stroke-linejoin="round"/>
<path fill-rule="evenodd" clip-rule="evenodd" d="M14.3057 7.63869V8.29167C14.3057 8.7519 13.9326 9.125 13.4723 9.125H7.639C7.17876 9.125 6.80566 8.7519 6.80566 8.29167V7.63869C6.80566 7.38377 6.87063 7.13306 6.99443 6.91022L7.16276 6.60726C7.45671 6.07816 8.0144 5.75001 8.61967 5.75H12.4917C13.0969 5.75 13.6546 6.07815 13.9486 6.60726L14.1169 6.91022C14.2407 7.13307 14.3057 7.38378 14.3057 7.63869Z" stroke="#2A2B2B" stroke-width="1.5" stroke-linecap="round" stroke-linejoin="round"/>
<path d="M7.55558 12.5V9.125" stroke="#2A2B2B" stroke-width="1.5" stroke-linecap="round" stroke-linejoin="round"/>
<path d="M6.80566 12.5002H14.3057" stroke="#2A2B2B" stroke-width="1.5" stroke-linecap="round" stroke-linejoin="round"/>
<path d="M13.5556 12.5V9.125" stroke="#2A2B2B" stroke-width="1.5" stroke-linecap="round" stroke-linejoin="round"/>
</svg>
