<svg width="24" height="24" viewBox="0 0 24 24" fill="none" xmlns="http://www.w3.org/2000/svg">
<rect width="24" height="24" rx="12" fill="#15B08F"/>
<path d="M10.5422 12H14.9167" stroke="white" stroke-width="1.25" stroke-linecap="round" stroke-linejoin="round"/>
<path d="M10.5422 14.0323H14.9167" stroke="white" stroke-width="1.25" stroke-linecap="round" stroke-linejoin="round"/>
<path d="M10.5422 9.94902H14.9167" stroke="white" stroke-width="1.25" stroke-linecap="round" stroke-linejoin="round"/>
<path d="M9.11249 9.91986C9.09616 9.91986 9.08333 9.93328 9.08333 9.94961C9.08333 9.96595 9.09674 9.97878 9.11308 9.97878C9.12941 9.97878 9.14283 9.96536 9.14283 9.94961C9.14224 9.93328 9.12883 9.91986 9.11249 9.91986" stroke="white" stroke-width="1.25" stroke-linecap="round" stroke-linejoin="round"/>
<path d="M9.11249 11.9702C9.09616 11.9702 9.08333 11.9836 9.08333 12C9.08333 12.0163 9.09674 12.0297 9.11308 12.0297C9.12941 12.0297 9.14283 12.0163 9.14283 12C9.14283 11.9836 9.12883 11.9702 9.11249 11.9702" stroke="white" stroke-width="1.25" stroke-linecap="round" stroke-linejoin="round"/>
<path d="M9.11249 14.0032C9.09616 14.0032 9.08333 14.0166 9.08333 14.0329C9.08333 14.0493 9.09674 14.0621 9.11308 14.0621C9.12941 14.0621 9.14283 14.0487 9.14283 14.0329C9.14224 14.0166 9.12883 14.0032 9.11249 14.0032" stroke="white" stroke-width="1.25" stroke-linecap="round" stroke-linejoin="round"/>
<path fill-rule="evenodd" clip-rule="evenodd" d="M17.25 9.08333V14.9167C17.25 16.2052 16.2052 17.25 14.9167 17.25H9.08333C7.79475 17.25 6.75 16.2052 6.75 14.9167V9.08333C6.75 7.79475 7.79475 6.75 9.08333 6.75H14.9167C16.2052 6.75 17.25 7.79475 17.25 9.08333Z" stroke="white" stroke-width="1.25" stroke-linecap="round" stroke-linejoin="round"/>
</svg>
