<svg width="21" height="20" viewBox="0 0 21 20" fill="none" xmlns="http://www.w3.org/2000/svg">
<path fill-rule="evenodd" clip-rule="evenodd" d="M12.4732 6.31198C13.2438 6.6975 13.8682 7.32307 14.2522 8.09439C15.2413 10.0059 14.6109 12.3561 12.7979 13.516C10.9849 14.6758 8.58683 14.263 7.26599 12.5638C6.28057 11.277 6.12107 9.53898 6.85582 8.09439C7.24075 7.32255 7.86639 6.69691 8.63823 6.31198C8.76817 6.24795 8.92203 6.25596 9.04461 6.33315C9.16719 6.41033 9.24091 6.54563 9.23932 6.69048V10.0002H11.8754V6.69048C11.8744 6.54657 11.9477 6.41232 12.0692 6.33534C12.1908 6.25835 12.3435 6.24953 12.4732 6.31198Z" stroke="#2A2B2B" stroke-width="1.5" stroke-linecap="round" stroke-linejoin="round"/>
<circle cx="10.5559" cy="10.0002" r="7.50312" stroke="#2A2B2B" stroke-width="1.5" stroke-linecap="round" stroke-linejoin="round"/>
<path d="M8.47153 13.606V17.2091" stroke="#2A2B2B" stroke-width="1.5" stroke-linecap="round" stroke-linejoin="round"/>
<path d="M12.64 13.6064V17.2088" stroke="#2A2B2B" stroke-width="1.5" stroke-linecap="round" stroke-linejoin="round"/>
</svg>
