<svg width="20" height="20" viewBox="0 0 20 20" fill="none" xmlns="http://www.w3.org/2000/svg">
<path fill-rule="evenodd" clip-rule="evenodd" d="M11.9175 6.31198C12.6881 6.6975 13.3125 7.32307 13.6965 8.09439C14.6856 10.0059 14.0552 12.3561 12.2422 13.516C10.4292 14.6758 8.03113 14.263 6.7103 12.5638C5.72488 11.277 5.56537 9.53898 6.30013 8.09439C6.68506 7.32255 7.31069 6.69691 8.08254 6.31198C8.21247 6.24795 8.36634 6.25596 8.48892 6.33315C8.6115 6.41033 8.68522 6.54563 8.68362 6.69048V10.0002H11.3197V6.69048C11.3187 6.54657 11.392 6.41232 11.5136 6.33534C11.6351 6.25835 11.7878 6.24953 11.9175 6.31198Z" stroke="#979999" stroke-width="1.5" stroke-linecap="round" stroke-linejoin="round"/>
<circle cx="9.99998" cy="10.0002" r="7.50312" stroke="#979999" stroke-width="1.5" stroke-linecap="round" stroke-linejoin="round"/>
<path d="M7.9158 13.606V17.2091" stroke="#979999" stroke-width="1.5" stroke-linecap="round" stroke-linejoin="round"/>
<path d="M12.0842 13.6064V17.2088" stroke="#979999" stroke-width="1.5" stroke-linecap="round" stroke-linejoin="round"/>
</svg>
