<svg width="21" height="20" viewBox="0 0 21 20" fill="none" xmlns="http://www.w3.org/2000/svg">
<path d="M12.2222 4.1665H15.5556C16.4764 4.1665 17.2222 4.91234 17.2222 5.83317V16.6665C17.2222 17.5873 16.4764 18.3332 15.5556 18.3332H5.55558C4.63475 18.3332 3.88892 17.5873 3.88892 16.6665V5.83317C3.88892 4.91234 4.63475 4.1665 5.55558 4.1665H8.88892" stroke="#2A2B2B" stroke-width="1.5" stroke-linecap="round" stroke-linejoin="round"/>
<path d="M11.8815 8.88267C12.6137 9.6149 12.6137 10.8021 11.8815 11.5343C11.1493 12.2666 9.96207 12.2666 9.22984 11.5343C8.49761 10.8021 8.49761 9.6149 9.22984 8.88267C9.96207 8.15044 11.1493 8.15044 11.8815 8.88267" stroke="#2A2B2B" stroke-width="1.5" stroke-linecap="round" stroke-linejoin="round"/>
<path d="M13.5515 15.8332C13.4056 15.4673 13.1806 15.139 12.8915 14.8715V14.8715C12.4023 14.4182 11.7606 14.1665 11.094 14.1665H10.0173C9.35065 14.1665 8.70898 14.4182 8.21981 14.8715V14.8715C7.93065 15.139 7.70565 15.4673 7.55981 15.8332" stroke="#2A2B2B" stroke-width="1.5" stroke-linecap="round" stroke-linejoin="round"/>
<path fill-rule="evenodd" clip-rule="evenodd" d="M11.3889 5.83317H9.72225C9.26225 5.83317 8.88892 5.45984 8.88892 4.99984V2.49984C8.88892 2.03984 9.26225 1.6665 9.72225 1.6665H11.3889C11.8489 1.6665 12.2222 2.03984 12.2222 2.49984V4.99984C12.2222 5.45984 11.8489 5.83317 11.3889 5.83317Z" stroke="#2A2B2B" stroke-width="1.5" stroke-linecap="round" stroke-linejoin="round"/>
</svg>
