<svg width="24" height="24" viewBox="0 0 24 24" fill="none" xmlns="http://www.w3.org/2000/svg">
<rect width="24" height="24" rx="12" fill="#15B08F"/>
<path d="M8.675 15.7917H11.2417" stroke="white" stroke-width="1.25" stroke-linecap="round" stroke-linejoin="round"/>
<path fill-rule="evenodd" clip-rule="evenodd" d="M13.1667 10.25H16.6667C16.9893 10.25 17.25 10.5113 17.25 10.8333V13.1667C17.25 13.4892 16.9887 13.75 16.6667 13.75H13.1667C12.8441 13.75 12.5833 13.4887 12.5833 13.1667V10.8333C12.5833 10.5113 12.8447 10.25 13.1667 10.25Z" stroke="white" stroke-width="1.25" stroke-linecap="round" stroke-linejoin="round"/>
<path d="M9.84167 13.1673L8.675 12.0001L9.84167 10.834" stroke="white" stroke-width="1.25" stroke-linecap="round" stroke-linejoin="round"/>
<path d="M8.675 12.0007H10.8333" stroke="white" stroke-width="1.25" stroke-linecap="round" stroke-linejoin="round"/>
<path d="M13.1667 15.5V16.0833C13.1667 16.7279 12.6446 17.25 12 17.25H7.91667C7.27208 17.25 6.75 16.7279 6.75 16.0833V7.91667C6.75 7.27208 7.27208 6.75 7.91667 6.75H12C12.6446 6.75 13.1667 7.27208 13.1667 7.91667V8.5" stroke="white" stroke-width="1.25" stroke-linecap="round" stroke-linejoin="round"/>
</svg>
