<svg width="24" height="24" viewBox="0 0 24 24" fill="none" xmlns="http://www.w3.org/2000/svg">
<rect width="24" height="24" rx="12" fill="#15B08F"/>
<path fill-rule="evenodd" clip-rule="evenodd" d="M15.2083 17.25H8.79167C8.14708 17.25 7.625 16.7279 7.625 16.0833V7.91667C7.625 7.27208 8.14708 6.75 8.79167 6.75H15.2083C15.8529 6.75 16.375 7.27208 16.375 7.91667V16.0833C16.375 16.7279 15.8529 17.25 15.2083 17.25Z" stroke="white" stroke-width="1.25" stroke-linecap="round" stroke-linejoin="round"/>
<path d="M12.0239 8.42773C11.9837 8.42773 11.951 8.4604 11.9516 8.50065C11.9516 8.5409 11.9842 8.57357 12.0245 8.57357C12.0647 8.57357 12.0974 8.5409 12.0974 8.50065C12.0974 8.4604 12.0647 8.42773 12.0239 8.42773" stroke="white" stroke-width="1.25" stroke-linecap="round" stroke-linejoin="round"/>
<path d="M9.66666 10.2507H14.3333" stroke="white" stroke-width="1.25" stroke-linecap="round" stroke-linejoin="round"/>
<path fill-rule="evenodd" clip-rule="evenodd" d="M9.66666 12H14.3333V15.5H9.66666V12Z" stroke="white" stroke-width="1.25" stroke-linecap="round" stroke-linejoin="round"/>
</svg>
