<svg width="24" height="24" viewBox="0 0 24 24" fill="none" xmlns="http://www.w3.org/2000/svg">
<rect width="24" height="24" rx="12" fill="#15B08F"/>
<path d="M16.6667 11.4167V7.78483V7.78483C16.6667 7.21317 16.2035 6.75 15.6318 6.75H7.78483C7.21317 6.75 6.75 7.21317 6.75 7.78483V15.6318C6.75 16.2035 7.21317 16.6667 7.78483 16.6667H10.25" stroke="white" stroke-width="1.25" stroke-linecap="round" stroke-linejoin="round"/>
<path d="M9.11367 11.6784C9.17083 11.7356 9.17083 11.8278 9.11367 11.8849C9.0565 11.9421 8.96433 11.9421 8.90717 11.8849C8.85 11.8278 8.85 11.7356 8.90717 11.6784C8.96433 11.6218 9.0565 11.6218 9.11367 11.6784" stroke="white" stroke-width="1.25" stroke-linecap="round" stroke-linejoin="round"/>
<path d="M14.4879 9.1569H11.4196" stroke="white" stroke-width="1.25" stroke-linecap="round" stroke-linejoin="round"/>
<path d="M9.11367 9.05549C9.17083 9.11266 9.17083 9.20483 9.11367 9.26199C9.0565 9.31916 8.96433 9.31916 8.90717 9.26199C8.85 9.20483 8.85 9.11266 8.90717 9.05549C8.96433 8.99833 9.0565 8.99891 9.11367 9.05549" stroke="white" stroke-width="1.25" stroke-linecap="round" stroke-linejoin="round"/>
<path d="M14.4878 11.7819H11.4195" stroke="white" stroke-width="1.25" stroke-linecap="round" stroke-linejoin="round"/>
<path fill-rule="evenodd" clip-rule="evenodd" d="M12.1458 14.7708V16.8125C12.1458 17.376 12.6032 17.8333 13.1667 17.8333H16.2292C16.7927 17.8333 17.25 17.376 17.25 16.8125V14.7708C17.25 14.2073 16.7927 13.75 16.2292 13.75H13.1667C12.6032 13.75 12.1458 14.2073 12.1458 14.7708Z" stroke="white" stroke-width="1.25" stroke-linecap="round" stroke-linejoin="round"/>
<path d="M17.25 15.6003H12.1458" stroke="white" stroke-width="1.25" stroke-linecap="round" stroke-linejoin="round"/>
</svg>
