<svg width="24" height="24" viewBox="0 0 24 24" fill="none" xmlns="http://www.w3.org/2000/svg">
<rect width="24" height="24" rx="12" fill="#15B08F"/>
<path d="M16.6686 10.8311V7.91325C16.6686 7.26865 16.1461 6.74609 15.5014 6.74609H7.91496C7.27035 6.74609 6.7478 7.26865 6.7478 7.91325V16.0833C6.7478 16.7279 7.27035 17.2505 7.91496 17.2505H10.8328" stroke="white" stroke-width="1.25" stroke-linecap="round" stroke-linejoin="round"/>
<path d="M10.2493 13.7508H10.8328" stroke="white" stroke-width="1.25" stroke-linecap="round" stroke-linejoin="round"/>
<path d="M10.2493 11.4148H13.1671" stroke="white" stroke-width="1.25" stroke-linecap="round" stroke-linejoin="round"/>
<path d="M8.57148 13.8237C8.61177 13.8237 8.64443 13.7911 8.64443 13.7508C8.64443 13.7105 8.61177 13.6778 8.57148 13.6778C8.53119 13.6778 8.49853 13.7105 8.49853 13.7508C8.49853 13.7911 8.53119 13.8237 8.57148 13.8237" stroke="white" stroke-width="1.25" stroke-linecap="round" stroke-linejoin="round"/>
<path d="M8.57148 11.4878C8.61177 11.4878 8.64443 11.4551 8.64443 11.4148C8.64443 11.3745 8.61177 11.3419 8.57148 11.3419C8.53119 11.3419 8.49853 11.3745 8.49853 11.4148C8.49853 11.4551 8.53119 11.4878 8.57148 11.4878" stroke="white" stroke-width="1.25" stroke-linecap="round" stroke-linejoin="round"/>
<path d="M15.2097 17.8343C14.1475 17.8343 13.1899 17.1945 12.7835 16.2132C12.377 15.2319 12.6017 14.1023 13.3527 13.3513C14.1038 12.6002 15.2333 12.3755 16.2146 12.782C17.1959 13.1885 17.8358 14.146 17.8358 15.2082C17.8358 16.6586 16.66 17.8343 15.2097 17.8343" stroke="white" stroke-width="1.25" stroke-linecap="round" stroke-linejoin="round"/>
<path d="M17.0666 17.0648L15.2097 15.2079V12.5859" stroke="white" stroke-width="1.25" stroke-linecap="round" stroke-linejoin="round"/>
<path d="M10.2493 9.08085H13.1671" stroke="white" stroke-width="1.25" stroke-linecap="round" stroke-linejoin="round"/>
<path d="M8.57148 9.1538C8.61177 9.1538 8.64443 9.12114 8.64443 9.08085C8.64443 9.04056 8.61177 9.0079 8.57148 9.0079C8.53119 9.0079 8.49853 9.04056 8.49853 9.08085C8.49853 9.12114 8.53119 9.1538 8.57148 9.1538" stroke="white" stroke-width="1.25" stroke-linecap="round" stroke-linejoin="round"/>
</svg>
